<?xml version="1.0" encoding="UTF-8"?>
<svg version="1.1" xmlns="http://www.w3.org/2000/svg" width="600" height="1200">
<path d="M0 0 C0.625 1.8125 0.625 1.8125 1 4 C0.34 4.99 -0.32 5.98 -1 7 C-0.87214391 9.8796679 -0.63223212 12.59225964 -0.25 15.4375 C-0.16234375 16.20126953 -0.0746875 16.96503906 0.015625 17.75195312 C0.49763303 21.5979755 1.09190227 24.57997737 3 28 C3 28.99 3 29.98 3 31 C3.66 31 4.32 31 5 31 C5 31.66 5 32.32 5 33 C9.66830031 34.89255418 13.48987059 36.12925447 18.54296875 36.31640625 C20.15268555 36.37924805 20.15268555 36.37924805 21.79492188 36.44335938 C22.91447266 36.48267578 24.03402344 36.52199219 25.1875 36.5625 C26.31865234 36.60568359 27.44980469 36.64886719 28.61523438 36.69335938 C31.41003354 36.79949099 34.20492162 36.90154385 37 37 C36.67 38.32 36.34 39.64 36 41 C35.14619751 41.029729 35.14619751 41.029729 34.27514648 41.06005859 C31.66218288 41.15611758 29.04993198 41.26546407 26.4375 41.375 C25.54224609 41.4059375 24.64699219 41.436875 23.72460938 41.46875 C22.40493164 41.52675781 22.40493164 41.52675781 21.05859375 41.5859375 C20.25736084 41.6173584 19.45612793 41.6487793 18.63061523 41.68115234 C15.22011594 42.02466847 15.22011594 42.02466847 9 44 C36.06 44.33 63.12 44.66 91 45 C89.71956961 38.97419778 89.71956961 38.97419778 85.9375 37.1875 C81.74244446 35.68294422 77.42360206 35.29089447 73 35 C73 33.68 73 32.36 73 31 C73.89203125 30.97421875 74.7840625 30.9484375 75.703125 30.921875 C76.87359375 30.86515625 78.0440625 30.8084375 79.25 30.75 C80.99023438 30.68039062 80.99023438 30.68039062 82.765625 30.609375 C86.59472569 29.88795023 87.80889662 29.20238186 90 26 C90.6960228 22.7374658 90.6960228 22.7374658 90.75 19.25 C90.83507812 17.49429688 90.83507812 17.49429688 90.921875 15.703125 C90.94765625 14.81109375 90.9734375 13.9190625 91 13 C92.32 12.67 93.64 12.34 95 12 C95.12117187 12.96421875 95.24234375 13.9284375 95.3671875 14.921875 C95.53476563 16.18515625 95.70234375 17.4484375 95.875 18.75 C96.03742188 20.00296875 96.19984375 21.2559375 96.3671875 22.546875 C96.92760311 26.65345068 96.92760311 26.65345068 99 30 C101.82517725 30.46588547 104.29079561 30.69615501 107.125 30.75 C108.25615234 30.79447266 108.25615234 30.79447266 109.41015625 30.83984375 C111.27285953 30.91057932 113.13643755 30.95754983 115 31 C115.33 31.99 115.66 32.98 116 34 C113.59003255 36.40996745 107.6910089 35.86446435 104.41796875 36.20703125 C100.58957083 37.09521957 99.25046641 37.81320814 97 41 C96.31658564 43.70132548 96.31658564 43.70132548 96.125 46.5625 C95.68359375 49.51171875 95.68359375 49.51171875 95 52 C92.1875 53.875 92.1875 53.875 89 55 C86.52056045 57.22847788 86.52056045 57.22847788 84 60 C82.67074203 61.33739628 81.3370839 62.67042781 80 64 C79.31292969 64.68707031 78.62585938 65.37414062 77.91796875 66.08203125 C62 82 62 82 59.921875 84.06640625 C58.77027825 85.22502493 57.63045313 86.39580415 56.515625 87.58984375 C54.1599734 90.09817647 52.49252654 91.6119415 49 92 C49 91.34 49 90.68 49 90 C48.34 90 47.68 90 47 90 C45.5546875 88.53125 45.5546875 88.53125 43.875 86.5 C39.30310945 81.12802861 34.53928061 76.01026381 29 71.625 C28.34 71.08875 27.68 70.5525 27 70 C27 69.34 27 68.68 27 68 C26.443125 67.773125 25.88625 67.54625 25.3125 67.3125 C22.36276727 65.63832737 20.3626116 63.42167689 18 61 C17.236875 60.443125 16.47375 59.88625 15.6875 59.3125 C15.130625 58.879375 14.57375 58.44625 14 58 C14 57.34 14 56.68 14 56 C12.35 55.34 10.7 54.68 9 54 C9 53.34 9 52.68 9 52 C8.34 52 7.68 52 7 52 C5.62689293 50.70766393 4.28965176 49.37562854 3 48 C2.65850891 51.01893568 2.65850891 51.01893568 4.57421875 52.68359375 C5.27160156 53.26238281 5.96898437 53.84117187 6.6875 54.4375 C7.4196875 55.05238281 8.151875 55.66726563 8.90625 56.30078125 C10.49089241 57.58682499 12.08663863 58.85920264 13.6875 60.125 C17.57709085 63.27872231 21.08031254 66.28803987 23 71 C23.66 71 24.32 71 25 71 C25 71.66 25 72.32 25 73 C25.721875 73.226875 26.44375 73.45375 27.1875 73.6875 C30.58568303 75.27331875 32.45230999 77.26123324 35 80 C35.86625 80.86625 36.7325 81.7325 37.625 82.625 C38.40875 83.40875 39.1925 84.1925 40 85 C40.598125 85.556875 41.19625 86.11375 41.8125 86.6875 C43 88 43 88 43 90 C46.17073098 92.11382065 49.26308871 92.47167166 53.04296875 92.39453125 C56.32530721 91.7328223 57.89047881 89.46110806 60 87 C62.3125 85.6875 62.3125 85.6875 64 85 C64 84.34 64 83.68 64 83 C64.66 83 65.32 83 66 83 C66.495 81.515 66.495 81.515 67 80 C67.66 80 68.32 80 69 80 C69 79.34 69 78.68 69 78 C69.66 78 70.32 78 71 78 C71.268125 77.360625 71.53625 76.72125 71.8125 76.0625 C73 74 73 74 76 73 C76.28875 72.4225 76.5775 71.845 76.875 71.25 C79.04405273 66.91189455 82.52441517 63.82338641 87 62 C87 61.34 87 60.68 87 60 C87.66 60 88.32 60 89 60 C89.226875 59.443125 89.45375 58.88625 89.6875 58.3125 C91.76246643 54.65660676 94.27863135 51.6048052 98.3125 50.1875 C98.869375 50.125625 99.42625 50.06375 100 50 C101.37079611 52.74159221 101.13476726 54.9381126 101.14526367 58.00683594 C101.15164352 59.26864685 101.15802338 60.53045776 101.16459656 61.83050537 C101.16612566 63.21512819 101.16723939 64.59975153 101.16796875 65.984375 C101.17118192 67.40203892 101.17454604 68.8197025 101.17805481 70.23736572 C101.18404909 73.21326465 101.18589452 76.18913452 101.18530273 79.16503906 C101.18520137 82.96915162 101.19882574 86.77307646 101.21607494 90.57714462 C101.22722486 93.50776007 101.22922099 96.43833067 101.22869301 99.36896515 C101.22986969 100.77072036 101.2342739 102.17247685 101.24202538 103.57421112 C101.25188034 105.5413114 101.24766883 107.50846671 101.24291992 109.47558594 C101.24434494 110.59318298 101.24576996 111.71078003 101.24723816 112.86224365 C100.90590953 117.19412377 100.31390711 120.63862316 97.23121643 123.83268738 C88.56439152 128.36693783 74.92931176 126.16324277 65.19140625 126.16796875 C63.61010205 126.17119127 62.02879812 126.17455605 60.44749451 126.17805481 C57.16070869 126.18399168 53.87394899 126.18589994 50.5871582 126.18530273 C46.38541445 126.18520042 42.18383705 126.19894784 37.98213291 126.21607494 C34.72813652 126.22720202 31.47418062 126.22922187 28.22016716 126.22869301 C26.67048497 126.22986837 25.12080158 126.23426512 23.57113838 126.24202538 C21.40871536 126.25185727 19.24665781 126.24893682 17.08422852 126.24291992 C15.85769058 126.24434494 14.63115265 126.24576996 13.3674469 126.24723816 C8.50965123 125.8905785 5.04213964 124.69475976 1 122 C0.66061437 118.94763735 0.5106507 116.09013597 0.48828125 113.03125 C0.47033005 112.12234009 0.45237885 111.21343018 0.43388367 110.27697754 C0.37962417 107.35136779 0.34597342 104.42591387 0.3125 101.5 C0.27930905 99.58982046 0.24481775 97.67966305 0.20898438 95.76953125 C0.00500696 84.17973591 -0.04047246 72.5913116 0 61 C-0.33 65.62 -0.66 70.24 -1 75 C-2.32 75 -3.64 75 -5 75 C-5.04898438 73.88882813 -5.09796875 72.77765625 -5.1484375 71.6328125 C-5.26575633 59.56220453 -5.26575633 59.56220453 -8 48 C-10.43562001 46.38993968 -10.43562001 46.38993968 -13 46 C-13.33 45.34 -13.66 44.68 -14 44 C-20.56324417 41.89480847 -27.14741173 41.43399726 -34 41 C-34.33 39.68 -34.66 38.36 -35 37 C-33.87722656 36.98582031 -32.75445312 36.97164062 -31.59765625 36.95703125 C-19.40048684 36.81467373 -19.40048684 36.81467373 -9 31 C-6.42401662 26.58615959 -6.24053875 22.12416699 -5.75 17.125 C-5.646875 16.23941406 -5.54375 15.35382812 -5.4375 14.44140625 C-4.9293208 9.42687329 -4.90832574 5.72968134 -7 1 C-4 0 -4 0 0 0 Z M5 45 C6 47 6 47 6 47 Z " fill="#F0F2F3" transform="translate(112,524)"/>
<path d="M0 0 C0.33 0 0.66 0 1 0 C1.04631753 8.4231212 1.08186618 16.84618929 1.10362434 25.26940632 C1.11406657 29.18054512 1.12823372 33.09159686 1.15087891 37.00268555 C1.17259173 40.77631169 1.18456532 44.54985404 1.18975449 48.32353783 C1.19345306 49.76406359 1.20067536 51.20458471 1.21146011 52.64507484 C1.22595347 54.66088014 1.22681674 56.67676956 1.22705078 58.69262695 C1.231492 59.84068314 1.23593323 60.98873932 1.24050903 62.17158508 C1 65 1 65 -1 68 C-4.83551785 67.48168678 -6.36601932 66.74372987 -9 64 C-11.59915538 62.80972016 -11.59915538 62.80972016 -14 62 C-14 61.34 -14 60.68 -14 60 C-14.763125 59.71125 -15.52625 59.4225 -16.3125 59.125 C-19 58 -19 58 -22 56 C-24.33290794 56.78396052 -24.33290794 56.78396052 -27 58 C-41.26392596 61.43215879 -55.84183785 62.49926118 -70.3125 59.75 C-75.03372805 58.86549586 -75.03372805 58.86549586 -79.5 60.75 C-80.325 61.4925 -81.15 62.235 -82 63 C-84.5 64 -84.5 64 -87 65 C-89.02318078 66.29788956 -91.02866014 67.62464661 -93 69 C-93.66 68.67 -94.32 68.34 -95 68 C-95.8618789 53.04878171 -96.12703743 38.16140144 -96.0625 23.1875 C-96.05746511 21.11523548 -96.05290578 19.04296975 -96.04882812 16.97070312 C-96.0380027 11.98043782 -96.02085279 6.99023306 -96 2 C-87.92569519 4.58363993 -79.98639488 9.73825664 -75.6875 17.3125 C-75.460625 17.869375 -75.23375 18.42625 -75 19 C-74.34 19 -73.68 19 -73 19 C-73 19.66 -73 20.32 -73 21 C-72.278125 21.226875 -71.55625 21.45375 -70.8125 21.6875 C-67.41431697 23.27331875 -65.54769001 25.26123324 -63 28 C-62.13375 28.86625 -61.2675 29.7325 -60.375 30.625 C-59.59125 31.40875 -58.8075 32.1925 -58 33 C-57.401875 33.556875 -56.80375 34.11375 -56.1875 34.6875 C-55 36 -55 36 -55 38 C-51.82926902 40.11382065 -48.73691129 40.47167166 -44.95703125 40.39453125 C-41.67469279 39.7328223 -40.10952119 37.46110806 -38 35 C-35.6875 33.6875 -35.6875 33.6875 -34 33 C-34 32.34 -34 31.68 -34 31 C-33.34 31 -32.68 31 -32 31 C-31.505 29.515 -31.505 29.515 -31 28 C-30.34 28 -29.68 28 -29 28 C-29 27.34 -29 26.68 -29 26 C-28.34 26 -27.68 26 -27 26 C-26.731875 25.360625 -26.46375 24.72125 -26.1875 24.0625 C-25 22 -25 22 -22 21 C-21.71125 20.4225 -21.4225 19.845 -21.125 19.25 C-18.95594727 14.91189455 -15.47558483 11.82338641 -11 10 C-11 9.34 -11 8.68 -11 8 C-9.948125 7.690625 -9.948125 7.690625 -8.875 7.375 C-5.05566739 5.54836267 -2.92145188 3.05424515 0 0 Z " fill="#E2E6EC" transform="translate(210,576)"/>
<path d="M0 0 C0.99 0.495 0.99 0.495 2 1 C2 3.64 2 6.28 2 9 C0.6696875 9.5878125 0.6696875 9.5878125 -0.6875 10.1875 C-4.22213726 12.1215468 -6.25659348 14.06063588 -9 17 C-10.32925797 18.33739628 -11.6629161 19.67042781 -13 21 C-13.68707031 21.68707031 -14.37414062 22.37414062 -15.08203125 23.08203125 C-31 39 -31 39 -33.078125 41.06640625 C-34.22972175 42.22502493 -35.36954687 43.39580415 -36.484375 44.58984375 C-38.8400266 47.09817647 -40.50747346 48.6119415 -44 49 C-44 48.34 -44 47.68 -44 47 C-44.66 47 -45.32 47 -46 47 C-47.4453125 45.53125 -47.4453125 45.53125 -49.125 43.5 C-53.69689055 38.12802861 -58.46071939 33.01026381 -64 28.625 C-64.66 28.08875 -65.32 27.5525 -66 27 C-66 26.34 -66 25.68 -66 25 C-66.556875 24.773125 -67.11375 24.54625 -67.6875 24.3125 C-70.63723273 22.63832737 -72.6373884 20.42167689 -75 18 C-75.70125 17.505 -76.4025 17.01 -77.125 16.5 C-79.46508533 14.62793173 -80.51774502 12.59394621 -82 10 C-83.32869858 8.32963607 -84.66104368 6.66215268 -86 5 C-86 4.67 -86 4.34 -86 4 C-57.62 4 -29.24 4 0 4 C0 2.68 0 1.36 0 0 Z " fill="#F9FAFA" transform="translate(205,567)"/>
<path d="M0 0 C0.825 0.680625 1.65 1.36125 2.5 2.0625 C2.5 6.0625 2.5 6.0625 0.3125 8.6875 C-2.38133731 10.96229595 -4.05316452 12.3731329 -7.5 13.0625 C-10.3125 11.8125 -10.3125 11.8125 -12.5 10.0625 C-12.5 9.4025 -12.5 8.7425 -12.5 8.0625 C-14.45901454 8.17632653 -16.4172338 8.30391125 -18.375 8.4375 C-20.01082031 8.54191406 -20.01082031 8.54191406 -21.6796875 8.6484375 C-24.63046474 8.79503491 -24.63046474 8.79503491 -26.5 11.0625 C-26.73000198 13.58679495 -26.73000198 13.58679495 -25.5 16.0625 C-20.81715823 18.75264314 -16.02137639 19.69691474 -10.734375 20.6328125 C-8.5 21.0625 -8.5 21.0625 -5.5 22.0625 C-5.5 22.7225 -5.5 23.3825 -5.5 24.0625 C-4.18 24.3925 -2.86 24.7225 -1.5 25.0625 C-1.5 25.7225 -1.5 26.3825 -1.5 27.0625 C-0.51 27.3925 0.48 27.7225 1.5 28.0625 C4.78156043 32.98484065 4.84985963 37.99832818 3.875 43.75 C2.05147461 48.14303843 0.02143511 51.69718142 -4.2890625 54.03125 C-6.33560938 54.84660732 -8.38051435 55.46410241 -10.5 56.0625 C-11.15613281 56.31386719 -11.81226563 56.56523438 -12.48828125 56.82421875 C-20.88116181 59.5586224 -29.48271125 55.73492958 -37.5 53.0625 C-37.5 52.4025 -37.5 51.7425 -37.5 51.0625 C-38.304375 50.835625 -39.10875 50.60875 -39.9375 50.375 C-42.5 49.0625 -42.5 49.0625 -43.625 46.8125 C-43.43385325 42.60727156 -41.47124498 40.90456042 -38.5 38.0625 C-36 36.9375 -36 36.9375 -33.5 37.0625 C-31 38.875 -31 38.875 -28.5 41.0625 C-22.99526762 44.12068466 -16.42576618 43.74213894 -10.5 42.0625 C-9.99758678 39.7329053 -9.99758678 39.7329053 -10.5 37.0625 C-14.40658667 33.55658888 -18.23303957 32.4508891 -23.2421875 31.5 C-26.39580517 30.88891838 -29.42292394 29.97907585 -32.5 29.0625 C-32.5 28.4025 -32.5 27.7425 -32.5 27.0625 C-33.10457031 26.96324219 -33.70914063 26.86398437 -34.33203125 26.76171875 C-38.09867175 25.54689235 -39.65225927 22.40635916 -41.5 19.0625 C-43.33663445 13.18526976 -41.71592125 8.60488079 -39.125 3.1875 C-37.24898347 0.73424762 -36.41290651 0.6450813 -33.5 0.0625 C-33.17 -0.9275 -32.84 -1.9175 -32.5 -2.9375 C-21.91885809 -7.61288829 -9.67818918 -5.66801357 0 0 Z " fill="#E0E3E6" transform="translate(286.5,607.9375)"/>
<path d="M0 0 C0 -0.99 0 -1.98 0 -3 C2.31243792 -3.02685412 4.6249627 -3.04632841 6.9375 -3.0625 C8.22527344 -3.07410156 9.51304687 -3.08570313 10.83984375 -3.09765625 C14 -3 14 -3 15 -2 C15.06879045 -0.59211866 15.06770884 0.81927636 15.03759766 2.22851562 C15.02072906 3.12614624 15.00386047 4.02377686 14.98648071 4.9486084 C14.9625827 5.92463013 14.93868469 6.90065186 14.9140625 7.90625 C14.89282318 8.9012854 14.87158386 9.8963208 14.84970093 10.92150879 C14.80334921 13.02992314 14.75441404 15.13828201 14.703125 17.24658203 C14.62533899 20.48588339 14.5581904 23.72528332 14.4921875 26.96484375 C14.44595266 29.00782709 14.39909853 31.05079652 14.3515625 33.09375 C14.33171295 34.06977173 14.3118634 35.04579346 14.29141235 36.0513916 C14.26823944 36.94902222 14.24506653 37.84665283 14.22119141 38.77148438 C14.20263092 39.56566772 14.18407043 40.35985107 14.16494751 41.17810059 C14 43 14 43 13 44 C11.21162378 44.12524459 9.41771786 44.17573676 7.625 44.1875 C6.64789063 44.20167969 5.67078125 44.21585938 4.6640625 44.23046875 C2 44 2 44 -1 42 C-3.40084462 42.80972016 -3.40084462 42.80972016 -6 44 C-13.35364146 45.70967014 -20.33079058 43.95170714 -26.9375 40.4375 C-33.23762993 32.9918919 -35.08463819 25.48371827 -34.546875 15.85546875 C-33.52286388 8.63619035 -30.21977203 3.46843732 -24.5625 -1.0625 C-17.42859215 -5.4705697 -6.45267262 -5.51814762 0 0 Z M-19 13 C-20.99124558 16.98249117 -20.51162921 21.66942421 -20 26 C-18.79212972 29.24769202 -17.95755031 29.81141277 -15 32 C-10.06179145 33.10097764 -6.323657 32.71477478 -1.875 30.3125 C1.02205865 25.19436305 1.06341783 19.74245628 0 14 C-1.71442804 11.54459308 -1.71442804 11.54459308 -4 10 C-4.99 10 -5.98 10 -7 10 C-7 9.34 -7 8.68 -7 8 C-12.91577623 7.29574093 -14.93760544 9.03207973 -19 13 Z " fill="#EAECEE" transform="translate(328,620)"/>
<path d="M0 0 C4.29 0 8.58 0 13 0 C13 5.61 13 11.22 13 17 C13.66 17 14.32 17 15 17 C15 16.34 15 15.68 15 15 C20.44193224 12.56545137 25.30506843 12.50365013 31 14 C36.44558276 16.82223246 41.48985505 21.33053467 44 27 C45.53304266 33.73731904 45.09361319 39.47285301 43 46 C42.34 46 41.68 46 41 46 C40.938125 46.556875 40.87625 47.11375 40.8125 47.6875 C39.19591586 52.28854718 35.79796974 54.5714607 31.625 56.8125 C27.13991663 58.28175145 23.4525483 59.10868622 19.00390625 57.09765625 C17.29624743 56.13215901 15.64247711 55.07263811 14 54 C13.34 54.99 12.68 55.98 12 57 C9.6875 57.328125 9.6875 57.328125 7 57.25 C5.6696875 57.22679687 5.6696875 57.22679687 4.3125 57.203125 C2 57 2 57 0 56 C0 37.52 0 19.04 0 0 Z M16 26.9375 C13.54674854 30.69404131 12.83773009 33.54659259 13 38 C13.72235996 41.02077801 14.24132756 42.40992144 16.6875 44.3125 C20.87997991 45.55891295 24.53596618 45.7883259 28.4375 43.6875 C30.33970402 42.01641903 30.33970402 42.01641903 30 39 C30.66 38.67 31.32 38.34 32 38 C31.71640113 36.5608866 31.42278601 35.12374482 31.125 33.6875 C30.96257812 32.88699219 30.80015625 32.08648438 30.6328125 31.26171875 C30.05521001 28.74698882 30.05521001 28.74698882 28 26 C23.4682465 24.43302826 20.04271854 24.32657761 16 26.9375 Z " fill="#40C9F3" transform="translate(311,543)"/>
<path d="M0 0 C8.07430481 2.58363993 16.01360512 7.73825664 20.3125 15.3125 C20.6528125 16.1478125 20.6528125 16.1478125 21 17 C21.66 17 22.32 17 23 17 C23 17.66 23 18.32 23 19 C23.721875 19.226875 24.44375 19.45375 25.1875 19.6875 C28.57355877 21.26766076 30.46677659 23.27191325 33 26 C33.763125 26.680625 34.52625 27.36125 35.3125 28.0625 C37 30 37 30 37 34 C37.99 34.33 38.98 34.66 40 35 C40 35.66 40 36.32 40 37 C40.66 37 41.32 37 42 37 C41.40855714 39.95721432 40.59059735 41.59987928 38.07421875 43.3046875 C36.55762546 44.1254321 35.02781974 44.92234499 33.484375 45.69140625 C28.14129103 48.50576652 23.4220645 52.15564844 18.6875 55.875 C13.60857045 59.82860526 8.43542346 63.54492463 3 67 C2.34 66.67 1.68 66.34 1 66 C0.1381211 51.04878171 -0.12703743 36.16140144 -0.0625 21.1875 C-0.05746511 19.11523548 -0.05290578 17.04296975 -0.04882812 14.97070312 C-0.0380027 9.98043782 -0.02085279 4.99023306 0 0 Z " fill="#E3E6EC" transform="translate(114,578)"/>
<path d="M0 0 C0.71236816 -0.01071533 1.42473633 -0.02143066 2.15869141 -0.0324707 C8.89065773 0.14649613 13.10308807 2.70377223 18.1875 7.125 C20.16628009 9.45297658 20.98105384 10.64198457 21.3125 13.625 C21.9725 13.625 22.6325 13.625 23.3125 13.625 C25.66309216 20.95331672 26.44589142 28.14159587 23.04296875 35.29296875 C19.26936114 41.30208061 19.26936114 41.30208061 16.11328125 42.3671875 C15.51902344 42.45226562 14.92476563 42.53734375 14.3125 42.625 C14.3125 43.285 14.3125 43.945 14.3125 44.625 C6.98488283 49.03671783 0.624722 49.27108578 -7.6875 47.625 C-10.84690221 46.53990876 -13.76886193 45.24646559 -16.6875 43.625 C-16.6875 42.965 -16.6875 42.305 -16.6875 41.625 C-17.3475 41.625 -18.0075 41.625 -18.6875 41.625 C-21.05253039 38.63393216 -22.60303181 36.59638418 -22.9375 32.75 C-22.855 32.04875 -22.7725 31.3475 -22.6875 30.625 C-23.3475 30.625 -24.0075 30.625 -24.6875 30.625 C-24.88408808 29.20956585 -25.06937546 27.79255969 -25.25 26.375 C-25.35441406 25.58609375 -25.45882813 24.7971875 -25.56640625 23.984375 C-25.68777349 21.61967126 -25.38383257 19.8738963 -24.6875 17.625 C-24.0275 17.625 -23.3675 17.625 -22.6875 17.625 C-22.584375 16.738125 -22.48125 15.85125 -22.375 14.9375 C-21.28437459 9.6826685 -19.00710694 6.30912524 -14.5625 3.3125 C-9.70371383 0.54320656 -5.47454915 0.04569047 0 0 Z M-8.6875 15.625 C-11.52021251 19.87406877 -11.33837229 23.63497911 -10.6875 28.625 C-9.36828151 31.73636437 -7.78405969 34.07672016 -4.6875 35.625 C0.56529338 35.96944547 4.13884624 36.20241751 8.3125 32.625 C10.70643754 29.19368952 11.56421805 26.61549011 11.25 22.5 C10.25011677 18.36714933 9.6841802 17.08541528 6.3125 14.625 C-0.090875 11.03911 -2.68597684 11.39279381 -8.6875 15.625 Z " fill="#E7EAEC" transform="translate(456.6875,616.375)"/>
<path d="M0 0 C0.99 0 1.98 0 3 0 C4.37079611 2.74159221 4.13476726 4.9381126 4.14526367 8.00683594 C4.15164352 9.26864685 4.15802338 10.53045776 4.16459656 11.83050537 C4.16612566 13.21512819 4.16723939 14.59975153 4.16796875 15.984375 C4.17118192 17.40203892 4.17454604 18.8197025 4.17805481 20.23736572 C4.18404909 23.21326465 4.18589452 26.18913452 4.18530273 29.16503906 C4.18520137 32.96915162 4.19882574 36.77307646 4.21607494 40.57714462 C4.22722486 43.50776007 4.22922099 46.43833067 4.22869301 49.36896515 C4.22986969 50.77072036 4.2342739 52.17247685 4.24202538 53.57421112 C4.25188034 55.5413114 4.24766883 57.50846671 4.24291992 59.47558594 C4.24434494 60.59318298 4.24576996 61.71078003 4.24723816 62.86224365 C3.90590953 67.19412377 3.31390711 70.63862316 0.23121643 73.83268738 C-8.43560848 78.36693783 -22.07068824 76.16324277 -31.80859375 76.16796875 C-33.38989795 76.17119127 -34.97120188 76.17455605 -36.55250549 76.17805481 C-39.83929131 76.18399168 -43.12605101 76.18589994 -46.4128418 76.18530273 C-50.61458555 76.18520042 -54.81616295 76.19894784 -59.01786709 76.21607494 C-62.27186348 76.22720202 -65.52581938 76.22922187 -68.77983284 76.22869301 C-70.32951503 76.22986837 -71.87919842 76.23426512 -73.42886162 76.24202538 C-75.59128464 76.25185727 -77.75334219 76.24893682 -79.91577148 76.24291992 C-81.14230942 76.24434494 -82.36884735 76.24576996 -83.6325531 76.24723816 C-88.49034877 75.8905785 -91.95786036 74.69475976 -96 72 C-95.67 71.01 -95.34 70.02 -95 69 C-94.01 69.33 -93.02 69.66 -92 70 C-90.55887315 69.09510639 -89.12386747 68.17689104 -87.7421875 67.18359375 C-84.68417047 65.106062 -81.35530785 63.53865755 -78 62 C-76.81857422 61.41992188 -76.81857422 61.41992188 -75.61328125 60.828125 C-72.39994214 59.80984714 -70.53545462 60.18556522 -67.25 60.875 C-53.51080976 63.24222534 -36.23798923 63.68443248 -23.28515625 57.7578125 C-21 57 -21 57 -18.76171875 57.828125 C-18.07722656 58.29734375 -17.39273438 58.7665625 -16.6875 59.25 C-15.99011719 59.70890625 -15.29273438 60.1678125 -14.57421875 60.640625 C-14.05472656 61.08921875 -13.53523438 61.5378125 -13 62 C-13 62.66 -13 63.32 -13 64 C-12.0925 64.268125 -11.185 64.53625 -10.25 64.8125 C-7.28528037 65.89576294 -5.3830246 66.98359457 -3 69 C-1.68 68.34 -0.36 67.68 1 67 C1 45.88 1 24.76 1 3 C-2.465 6.465 -2.465 6.465 -6 10 C-6.66 10 -7.32 10 -8 10 C-6.44303593 6.17836093 -3.96591316 3.81381505 -1 1 C-0.67 0.67 -0.34 0.34 0 0 Z " fill="#9EADC1" transform="translate(209,574)"/>
<path d="M0 0 C0 0.66 0 1.32 0 2 C0.70125 2.185625 1.4025 2.37125 2.125 2.5625 C6.0647946 4.5323973 8.48214896 7.42242051 11 11 C12.07427471 14.22282413 12.1332963 16.61511153 12.125 20 C12.12886719 21.5778125 12.12886719 21.5778125 12.1328125 23.1875 C12 26 12 26 11 29 C10.34 29 9.68 29 9 29 C8.773125 29.721875 8.54625 30.44375 8.3125 31.1875 C5.74135929 36.69708724 1.59596073 39.84770741 -4 42 C-11.26187931 43.9411562 -16.38936732 42.23110371 -23 39 C-23.70253906 38.69191406 -24.40507812 38.38382813 -25.12890625 38.06640625 C-29.19483379 35.74908221 -31.33726802 31.32546396 -33.375 27.25 C-34.48742019 21.46541502 -34.14703869 15.51256095 -31.6875 10.125 C-31.130625 9.42375 -30.57375 8.7225 -30 8 C-29.360625 7.0925 -28.72125 6.185 -28.0625 5.25 C-25.95633666 2.95236726 -25.03685633 2.32537746 -22 2 C-22 1.34 -22 0.68 -22 0 C-14.11567307 -2.62810898 -7.88432693 -2.62810898 0 0 Z M-19.65234375 14.1328125 C-22.01064564 17.40025686 -21.47038528 20.10252198 -21 24 C-20.34 24 -19.68 24 -19 24 C-18.938125 24.61875 -18.87625 25.2375 -18.8125 25.875 C-18.1739314 28.18957084 -18.1739314 28.18957084 -15.875 29.3125 C-12.18526284 30.19482845 -9.6719684 29.93468287 -6 29 C-3.35232085 27.04907852 -2.25834096 25.70121117 -1.125 22.625 C-0.96765213 19.32069474 -1.71914128 17.03361275 -3 14 C-3.66 13.34 -4.32 12.68 -5 12 C-5.99 12 -6.98 12 -8 12 C-8 11.34 -8 10.68 -8 10 C-13.24499674 9.2324395 -15.90522393 10.69040352 -19.65234375 14.1328125 Z " fill="#40C5EE" transform="translate(391,558)"/>
<path d="M0 0 C5.71848986 5.45251359 7.98447611 11.59529866 8.17578125 19.4453125 C8.14297486 21.85986313 8.08397502 24.2741871 8 26.6875 C7.97744141 27.93015625 7.95488281 29.1728125 7.93164062 30.453125 C7.87322238 33.49087385 7.79135762 36.52602279 7.6875 39.5625 C3.3458137 41.85007342 0.58688053 41.7995668 -4.3125 41.5625 C-4.9725 41.2325 -5.6325 40.9025 -6.3125 40.5625 C-6.3125 31.6525 -6.3125 22.7425 -6.3125 13.5625 C-6.9725 13.5625 -7.6325 13.5625 -8.3125 13.5625 C-8.3125 12.9025 -8.3125 12.2425 -8.3125 11.5625 C-12.33054691 10.72151344 -15.33053543 10.50845055 -19.3125 11.5625 C-20.28682088 14.86661144 -20.49167647 17.94960995 -20.59375 21.38671875 C-20.63113281 22.49724609 -20.66851562 23.60777344 -20.70703125 24.75195312 C-20.77769676 27.09569251 -20.84800575 29.43944267 -20.91796875 31.78320312 C-20.95535156 32.88986328 -20.99273437 33.99652344 -21.03125 35.13671875 C-21.07668945 36.66171997 -21.07668945 36.66171997 -21.12304688 38.2175293 C-21.3125 40.5625 -21.3125 40.5625 -22.3125 41.5625 C-23.95480364 41.6870486 -25.60302276 41.73818524 -27.25 41.75 C-28.14589844 41.76417969 -29.04179687 41.77835938 -29.96484375 41.79296875 C-32.3125 41.5625 -32.3125 41.5625 -34.3125 39.5625 C-34.50026167 36.56114387 -34.56800182 33.65362854 -34.54296875 30.65234375 C-34.54251053 29.76970352 -34.54205231 28.88706329 -34.5415802 27.97767639 C-34.53855687 26.11067359 -34.53066817 24.24367333 -34.51831055 22.37670898 C-34.50005226 19.50821061 -34.49780084 16.64003479 -34.49804688 13.77148438 C-34.49313188 11.96093469 -34.48730364 10.15038721 -34.48046875 8.33984375 C-34.47935593 7.47632797 -34.4782431 6.61281219 -34.47709656 5.72312927 C-34.42854615 -0.32145385 -34.42854615 -0.32145385 -33.3125 -1.4375 C-31.29285801 -1.50994053 -29.27082876 -1.52127188 -27.25 -1.5 C-25.59291016 -1.48646484 -25.59291016 -1.48646484 -23.90234375 -1.47265625 C-23.04769531 -1.46105469 -22.19304687 -1.44945312 -21.3125 -1.4375 C-20.9825 -0.4475 -20.6525 0.5425 -20.3125 1.5625 C-19.714375 1.088125 -19.11625 0.61375 -18.5 0.125 C-12.86996057 -3.89645673 -6.03346742 -2.61829718 0 0 Z " fill="#E0E3E5" transform="translate(298.3125,558.4375)"/>
<path d="M0 0 C4.95 0 9.9 0 15 0 C24.70963995 20.74332172 24.70963995 20.74332172 26 28 C26.66 28 27.32 28 28 28 C28.103125 27.113125 28.20625 26.22625 28.3125 25.3125 C29.01939891 21.9065325 30.16257147 19.90926185 32 17 C32.144375 16.40703125 32.28875 15.8140625 32.4375 15.203125 C33.14773717 12.42136277 34.2930463 9.97837106 35.5 7.375 C36.16515625 5.93253906 36.16515625 5.93253906 36.84375 4.4609375 C37.54607259 2.96612929 38.26139204 1.47721592 39 0 C43.62 0 48.24 0 53 0 C52.13658964 5.18046216 51.16597415 8.20834042 48.9375 12.8125 C48.30456904 14.13275572 47.67176153 15.45307062 47.0390625 16.7734375 C46.70680664 17.46018555 46.37455078 18.14693359 46.03222656 18.85449219 C44.2617645 22.53444029 42.54201452 26.23818102 40.8125 29.9375 C39.55269532 32.63038397 38.28160824 35.31742763 37 38 C36.65114746 38.74137207 36.30229492 39.48274414 35.94287109 40.24658203 C35.59434082 40.97087402 35.24581055 41.69516602 34.88671875 42.44140625 C34.57307373 43.09955322 34.25942871 43.7577002 33.9362793 44.43579102 C33 46 33 46 31 47 C23.81565087 47.4635064 23.81565087 47.4635064 20.8828125 45.796875 C18.65370151 43.66950767 17.82810251 41.87494003 16.75 39 C16.41484375 38.13375 16.0796875 37.2675 15.734375 36.375 C15 34 15 34 15 31 C14.34 31 13.68 31 13 31 C10 24.375 10 24.375 10 21 C9.34 20.67 8.68 20.34 8 20 C6.54547087 17.41514401 5.18945863 14.84196327 3.875 12.1875 C3.50246094 11.46240234 3.12992187 10.73730469 2.74609375 9.99023438 C2.39417969 9.28576172 2.04226563 8.58128906 1.6796875 7.85546875 C1.35726074 7.21246826 1.03483398 6.56946777 0.70263672 5.90698242 C0 4 0 4 0 0 Z " fill="#E2E5E8" transform="translate(347,617)"/>
<path d="M0 0 C6.58508073 0.01341157 6.58508073 0.01341157 9.2890625 1.9921875 C10.9871977 4.38546577 12.25 6.50658021 12.25 9.5 C13.24 9.83 14.23 10.16 15.25 10.5 C15.70375 9.530625 16.1575 8.56125 16.625 7.5625 C18.25 4.5 18.25 4.5 20.25 3.5 C20.58 2.51 20.91 1.52 21.25 0.5 C25.87 0.5 30.49 0.5 35.25 0.5 C35.25 5.23113419 34.0894052 6.82547562 31.25 10.5 C30.59 10.5 29.93 10.5 29.25 10.5 C29.0025 11.221875 28.755 11.94375 28.5 12.6875 C27.14016326 15.74713266 25.42082246 17.9673738 23.25 20.5 C23.53875 21.056875 23.8275 21.61375 24.125 22.1875 C25.25 24.5 25.25 24.5 26.1875 27.1875 C26.538125 27.950625 26.88875 28.71375 27.25 29.5 C28.24 29.83 29.23 30.16 30.25 30.5 C34.25 35.87142857 34.25 35.87142857 34.25 38.5 C34.91 38.5 35.57 38.5 36.25 38.5 C35.92 40.15 35.59 41.8 35.25 43.5 C30.96 43.5 26.67 43.5 22.25 43.5 C21.92 42.18 21.59 40.86 21.25 39.5 C20.59 39.5 19.93 39.5 19.25 39.5 C17.86061923 37.53852126 16.5239589 35.53833424 15.25 33.5 C11.72944145 34.67351952 11.42776613 35.40322383 9.625 38.5 C7.29347826 42.45652174 7.29347826 42.45652174 6.25 43.5 C4.23035801 43.57244053 2.20832876 43.58377188 0.1875 43.5625 C-1.46958984 43.54896484 -1.46958984 43.54896484 -3.16015625 43.53515625 C-4.01480469 43.52355469 -4.86945313 43.51195312 -5.75 43.5 C-6.51171875 41.33984375 -6.51171875 41.33984375 -6.75 38.5 C-5.01953125 35.81640625 -5.01953125 35.81640625 -2.5625 33.0625 C0.68261865 29.32202056 3.63863106 25.70089786 6.25 21.5 C5.0125 20.076875 5.0125 20.076875 3.75 18.625 C1.25 15.75 1.25 15.75 1.25 13.5 C0.59 13.5 -0.07 13.5 -0.75 13.5 C-1.7265625 11.70963542 -2.703125 9.91927083 -3.6796875 8.12890625 C-4.66410024 6.33381685 -4.66410024 6.33381685 -6.75 5.5 C-7.4375 3.5 -7.4375 3.5 -7.75 1.5 C-5.81025638 -0.43974362 -2.58547225 0.10728101 0 0 Z " fill="#40C9F3" transform="translate(407.75,556.5)"/>
<path d="M0 0 C0 4.95 0 9.9 0 15 C-2.21354167 15.13020833 -4.42708333 15.26041667 -6.640625 15.390625 C-9.88626541 16.22890299 -11.04161637 17.27662276 -13 20 C-13.45803396 22.68654532 -13.69466557 24.99549542 -13.75 27.6875 C-13.78037354 28.39994873 -13.81074707 29.11239746 -13.84204102 29.84643555 C-13.99134005 33.67206002 -14.00698751 37.48437001 -13.9375 41.3125 C-14 45 -14 45 -16 48 C-18.53125 48.328125 -18.53125 48.328125 -21.5 48.25 C-22.4796875 48.23453125 -23.459375 48.2190625 -24.46875 48.203125 C-27 48 -27 48 -29 47 C-29.02527062 40.60962769 -29.04283317 34.21926817 -29.05493164 27.82885742 C-29.05997308 25.65307127 -29.06680607 23.47728853 -29.07543945 21.30151367 C-29.08751338 18.18146933 -29.09323005 15.06146962 -29.09765625 11.94140625 C-29.10281754 10.96224747 -29.10797882 9.98308868 -29.11329651 8.97425842 C-29.11337204 8.07340012 -29.11344757 7.17254181 -29.11352539 6.24438477 C-29.115746 5.44718521 -29.11796661 4.64998566 -29.12025452 3.82862854 C-29 2 -29 2 -28 1 C-25.81360547 0.92741054 -23.62499611 0.91626217 -21.4375 0.9375 C-19.64119141 0.95103516 -19.64119141 0.95103516 -17.80859375 0.96484375 C-16.88175781 0.97644531 -15.95492188 0.98804688 -15 1 C-14.67 1.99 -14.34 2.98 -14 4 C-13.608125 3.525625 -13.21625 3.05125 -12.8125 2.5625 C-9.05528008 -0.67648269 -4.82019758 0 0 0 Z " fill="#DBDEE1" transform="translate(514,616)"/>
<path d="M0 0 C2 1.375 2 1.375 4 3 C4 3.66 4 4.32 4 5 C7.92155886 7.61437258 11.44236768 7.21703011 16 7 C16.99 6.67 17.98 6.34 19 6 C19 6.99 19 7.98 19 9 C19.66 9.2475 20.32 9.495 21 9.75 C24.76360907 11.31817045 28.3711424 13.14505046 32 15 C32 15.66 32 16.32 32 17 C32.53238281 17.2371875 33.06476563 17.474375 33.61328125 17.71875 C36.68542459 19.36795297 39.41252095 21.40453934 42.1875 23.5 C42.73341797 23.90347656 43.27933594 24.30695312 43.84179688 24.72265625 C47.87604632 27.75209263 47.87604632 27.75209263 49 30 C47.68 29.67 46.36 29.34 45 29 C45 28.34 45 27.68 45 27 C44.236875 26.71125 43.47375 26.4225 42.6875 26.125 C40 25 40 25 37 23 C34.66709206 23.78396052 34.66709206 23.78396052 32 25 C17.73607404 28.43215879 3.15816215 29.49926118 -11.3125 26.75 C-15.21243223 26.02373711 -17.43909716 25.64168238 -20.8125 27.875 C-21.534375 28.57625 -22.25625 29.2775 -23 30 C-23.66 29.67 -24.32 29.34 -25 29 C-16.95594908 22.34959924 -9.04363237 16.56973294 0.234375 11.75390625 C3.01345923 9.99146442 3.95117689 9.05906739 5 6 C4.34 6 3.68 6 3 6 C1.375 4.6875 1.375 4.6875 0 3 C0 2.01 0 1.02 0 0 Z " fill="#C0C9D7" transform="translate(151,609)"/>
<path d="M0 0 C2.75110472 2.0271298 3.82680718 3.13403589 4.5 6.5 C3.85643482 9.71782589 2.46694247 10.91851729 0 13 C0.66 13.66 1.32 14.32 2 15 C2.24723816 16.85276794 2.24723816 16.85276794 2.24291992 19.12670898 C2.24599655 19.97776718 2.24907318 20.82882538 2.25224304 21.70567322 C2.24505753 22.62651199 2.23787201 23.54735077 2.23046875 24.49609375 C2.22978142 25.91282127 2.22978142 25.91282127 2.2290802 27.35816956 C2.22605581 29.35801446 2.21816396 31.35785698 2.20581055 33.35766602 C2.18759529 36.42147153 2.18530056 39.48497421 2.18554688 42.54882812 C2.18063012 44.48958595 2.17480111 46.43034172 2.16796875 48.37109375 C2.16685593 49.28990829 2.1657431 50.20872284 2.16459656 51.15538025 C2.15821671 52.00959061 2.15183685 52.86380096 2.14526367 53.74389648 C2.14145187 54.49509262 2.13764008 55.24628876 2.13371277 56.02024841 C2 58 2 58 1 61 C-0.81242052 61.02687279 -2.62495233 61.04633715 -4.4375 61.0625 C-5.44683594 61.07410156 -6.45617187 61.08570313 -7.49609375 61.09765625 C-10 61 -10 61 -11 60 C-11.09295815 58.55710213 -11.11746513 57.10970215 -11.11352539 55.66381836 C-11.11344986 54.7429393 -11.11337433 53.82206024 -11.11329651 52.87327576 C-11.10813522 51.87224319 -11.10297394 50.87121063 -11.09765625 49.83984375 C-11.0962413 48.82024063 -11.09482635 47.80063751 -11.09336853 46.75013733 C-11.08775097 43.47922893 -11.0751955 40.20838787 -11.0625 36.9375 C-11.05748726 34.72591244 -11.05292396 32.51432382 -11.04882812 30.30273438 C-11.03777584 24.86846643 -11.02102063 19.43423803 -11 14 C-10.01 13.67 -9.02 13.34 -8 13 C-8.99 12.34 -9.98 11.68 -11 11 C-11.9375 7.625 -11.9375 7.625 -12 4 C-8.36442157 -0.76386139 -5.72083569 -1.48741728 0 0 Z " fill="#FCFCFD" transform="translate(423,603)"/>
<path d="M0 0 C1.32 0.66 2.64 1.32 4 2 C3.98428955 2.99797607 3.98428955 2.99797607 3.96826172 4.01611328 C3.92649535 7.0523699 3.90060848 10.08856586 3.875 13.125 C3.85824219 14.17171875 3.84148437 15.2184375 3.82421875 16.296875 C3.64020453 25.11778054 3.64020453 25.11778054 7.5 32.8125 C10.47928722 35.17110238 12.93348992 35.25253711 16.6640625 35.53515625 C17.78554687 35.62216797 18.90703125 35.70917969 20.0625 35.79882812 C21.238125 35.88583984 22.41375 35.97285156 23.625 36.0625 C24.80835938 36.15337891 25.99171875 36.24425781 27.2109375 36.33789062 C30.14036185 36.56232233 33.07002763 36.78285965 36 37 C35.234375 41.734375 35.234375 41.734375 33.125 44.125 C25.54111113 48.67533332 17.60351626 49.89135151 9 48 C5.18694708 46.89504497 1.86416101 45.86416101 -1 43 C-1.825 42.2575 -2.65 41.515 -3.5 40.75 C-8.40864669 35.35048864 -9.25758399 28.12955678 -9 21 C-7.83025089 16.14324758 -6.23634838 11.47269676 -4 7 C-3.34 7 -2.68 7 -2 7 C-1.34 4.69 -0.68 2.38 0 0 Z " fill="#5CBFE9" transform="translate(106,616)"/>
<path d="M0 0 C1.50046875 0.00386719 1.50046875 0.00386719 3.03125 0.0078125 C4.0315625 0.00523437 5.031875 0.00265625 6.0625 0 C8.53125 0.1328125 8.53125 0.1328125 9.53125 1.1328125 C9.62478163 2.82083235 9.64869791 4.51276457 9.64477539 6.20336914 C9.64469986 7.28441422 9.64462433 8.36545929 9.64454651 9.47926331 C9.63938522 10.6552861 9.63422394 11.8313089 9.62890625 13.04296875 C9.6274913 14.24014023 9.62607635 15.43731171 9.62461853 16.67076111 C9.61899979 20.51230316 9.60644411 24.35378793 9.59375 28.1953125 C9.58873741 30.79231687 9.58417409 33.38932215 9.58007812 35.98632812 C9.56902427 42.36850929 9.55226792 48.7506568 9.53125 55.1328125 C5.37626199 56.22625897 1.83315188 56.27385846 -2.46875 56.1328125 C-4.14887342 54.45268908 -3.59622339 52.38194058 -3.59814453 50.078125 C-3.60129669 49.00030762 -3.60444885 47.92249023 -3.60769653 46.81201172 C-3.6056723 45.63912598 -3.60364807 44.46624023 -3.6015625 43.2578125 C-3.60251923 42.0630127 -3.60347595 40.86821289 -3.60446167 39.63720703 C-3.60514371 37.1051427 -3.60328778 34.57307662 -3.59912109 32.04101562 C-3.59377321 28.1496999 -3.59906533 24.25849961 -3.60546875 20.3671875 C-3.60480797 17.91406224 -3.60352682 15.46093706 -3.6015625 13.0078125 C-3.60358673 11.83492676 -3.60561096 10.66204102 -3.60769653 9.45361328 C-3.60454437 8.3757959 -3.60139221 7.29797852 -3.59814453 6.1875 C-3.59734894 5.23343262 -3.59655334 4.27936523 -3.59573364 3.29638672 C-3.41309606 0.18456881 -3.12726973 0.16823919 0 0 Z " fill="#F6F7F8" transform="translate(246.46875,543.8671875)"/>
<path d="M0 0 C3.41019088 1.25040332 5.62722309 3.28825496 8 6 C8 6.66 8 7.32 8 8 C8.99 8.33 9.98 8.66 11 9 C15.84217168 17.34019537 16.50626025 27.63067096 14.31640625 36.890625 C13.63647602 38.95969497 12.83273338 40.98756099 12 43 C11.34 43 10.68 43 10 43 C9.76410156 43.73992188 9.52820313 44.47984375 9.28515625 45.2421875 C6.44881808 51.32867609 -0.31566215 55.68500722 -6.5 58 C-16.5676159 60.69762738 -25.92302692 58.67051962 -35.09375 53.9140625 C-36.75 52.875 -36.75 52.875 -39 51 C-39 50.34 -39 49.68 -39 49 C-39.99 48.67 -40.98 48.34 -42 48 C-42 46.68 -42 45.36 -42 44 C-40.234375 43.35546875 -40.234375 43.35546875 -38 43 C-36.078125 43.92578125 -36.078125 43.92578125 -34.25 45.3125 C-33.32960937 45.98732422 -33.32960937 45.98732422 -32.390625 46.67578125 C-31.93171875 47.11277344 -31.4728125 47.54976562 -31 48 C-31 48.66 -31 49.32 -31 50 C-22.03776636 52.13470526 -13.37150251 52.95327364 -4.5625 49.75 C2.24180096 45.10316032 6.97779148 39.10262511 8.68359375 31.00390625 C9.59263145 25.24666746 8.92845428 21.05660712 6.65625 15.796875 C6 14 6 14 6 11 C5.34 11 4.68 11 4 11 C2.4921875 9.57421875 2.4921875 9.57421875 0.875 7.6875 C0.33617187 7.07261719 -0.20265625 6.45773437 -0.7578125 5.82421875 C-2 4 -2 4 -2 1 C-1.34 0.67 -0.68 0.34 0 0 Z " fill="#68BDDC" transform="translate(217,612)"/>
<path d="M0 0 C0.12117188 0.96421875 0.24234375 1.9284375 0.3671875 2.921875 C0.53476563 4.18515625 0.70234375 5.4484375 0.875 6.75 C1.03742188 8.00296875 1.19984375 9.2559375 1.3671875 10.546875 C1.92760311 14.65345068 1.92760311 14.65345068 4 18 C6.82517725 18.46588547 9.29079561 18.69615501 12.125 18.75 C13.25615234 18.79447266 13.25615234 18.79447266 14.41015625 18.83984375 C16.27285953 18.91057932 18.13643755 18.95754983 20 19 C20.495 20.485 20.495 20.485 21 22 C18.59003255 24.40996745 12.6910089 23.86446435 9.41796875 24.20703125 C5.63890894 25.08377313 4.3659675 25.99856881 2 29 C0.76487921 31.13309192 0.76487921 31.13309192 0 33 C-0.33 32.67 -0.66 32.34 -1 32 C-1.33 32.99 -1.66 33.98 -2 35 C-30.05 35.33 -58.1 35.66 -87 36 C-85.02 38.64 -83.04 41.28 -81 44 C-82.65 43.34 -84.3 42.68 -86 42 C-86 41.34 -86 40.68 -86 40 C-86.66 40 -87.32 40 -88 40 C-89.625 37.5 -89.625 37.5 -91 35 C-90.34 35 -89.68 35 -89 35 C-88.67 34.01 -88.34 33.02 -88 32 C-60.28 32.33 -32.56 32.66 -4 33 C-5.28043039 26.97419778 -5.28043039 26.97419778 -9.0625 25.1875 C-13.25755554 23.68294422 -17.57639794 23.29089447 -22 23 C-22 21.68 -22 20.36 -22 19 C-21.10796875 18.97421875 -20.2159375 18.9484375 -19.296875 18.921875 C-18.12640625 18.86515625 -16.9559375 18.8084375 -15.75 18.75 C-14.00976562 18.68039062 -14.00976562 18.68039062 -12.234375 18.609375 C-8.98010251 18.22050132 -8.98010251 18.22050132 -6.6171875 16.37109375 C-4.49553624 13.26036352 -4.46711767 11.05163985 -4.375 7.3125 C-4.31406354 5.20550472 -4.20481609 3.09790198 -4 1 C-2 0 -2 0 0 0 Z " fill="#F0F2F3" transform="translate(207,536)"/>
<path d="M0 0 C0.33 6.27 0.66 12.54 1 19 C2.32 19.66 3.64 20.32 5 21 C5 21.66 5 22.32 5 23 C4.01 23.66 3.02 24.32 2 25 C1.12873986 27.04199769 1.12873986 27.04199769 0.6875 29.375 C0.50574219 30.14585937 0.32398438 30.91671875 0.13671875 31.7109375 C-0.02651576 34.44394951 0.73361878 35.61901358 2 38 C2 39.32 2 40.64 2 42 C6.74354436 44.22656164 10.72250715 45.46148032 16 46 C15.67 46.99 15.34 47.98 15 49 C15.66 49.33 16.32 49.66 17 50 C17.33 50.66 17.66 51.32 18 52 C6.75510204 52.3877551 6.75510204 52.3877551 2.125 48.375 C1.75375 47.92125 1.3825 47.4675 1 47 C0.505 49.475 0.505 49.475 0 52 C-2.31 52 -4.62 52 -7 52 C-7 34.84 -7 17.68 -7 0 C-5 -1 -5 -1 0 0 Z " fill="#3EC9F5" transform="translate(321,545)"/>
<path d="M0 0 C4.29 0 8.58 0 13 0 C13 5.61 13 11.22 13 17 C13.66 17 14.32 17 15 17 C15 16.34 15 15.68 15 15 C20.41332987 12.57824716 25.3354395 12.46222821 31 14 C33.94792925 15.71645558 36.48459385 17.70240835 39 20 C37.68 20.33 36.36 20.66 35 21 C35 20.34 35 19.68 35 19 C28.8556783 17.0656765 23.33159902 16.39556419 17 18 C15.6571785 18.98722247 14.32276524 19.98606218 13 21 C12.01 21 11.02 21 10 21 C9.67 14.73 9.34 8.46 9 2 C7.02 2 5.04 2 3 2 C3 19.16 3 36.32 3 54 C5.31 54 7.62 54 10 54 C10.33 52.35 10.66 50.7 11 49 C11.99 49.33 12.98 49.66 14 50 C14 50.66 14 51.32 14 52 C14.969375 52.144375 15.93875 52.28875 16.9375 52.4375 C20 53 20 53 21 54 C22.84891946 54.23363881 24.70488031 54.41303635 26.5625 54.5625 C27.57441406 54.64628906 28.58632813 54.73007812 29.62890625 54.81640625 C30.80259766 54.90728516 30.80259766 54.90728516 32 55 C31.67 55.66 31.34 56.32 31 57 C26.87576968 58.37474344 23.0783697 58.92416827 18.98828125 57.10546875 C17.28960602 56.13036715 15.63992219 55.07096959 14 54 C13.34 54.99 12.68 55.98 12 57 C9.6875 57.328125 9.6875 57.328125 7 57.25 C5.6696875 57.22679687 5.6696875 57.22679687 4.3125 57.203125 C2 57 2 57 0 56 C0 37.52 0 19.04 0 0 Z " fill="#549BB5" transform="translate(311,543)"/>
<path d="M0 0 C2.75110472 2.0271298 3.82680718 3.13403589 4.5 6.5 C3.85643482 9.71782589 2.46694247 10.91851729 0 13 C0.66 13.66 1.32 14.32 2 15 C2.24723816 16.85276794 2.24723816 16.85276794 2.24291992 19.12670898 C2.24599655 19.97776718 2.24907318 20.82882538 2.25224304 21.70567322 C2.24505753 22.62651199 2.23787201 23.54735077 2.23046875 24.49609375 C2.22978142 25.91282127 2.22978142 25.91282127 2.2290802 27.35816956 C2.22605581 29.35801446 2.21816396 31.35785698 2.20581055 33.35766602 C2.18759529 36.42147153 2.18530056 39.48497421 2.18554688 42.54882812 C2.18063012 44.48958595 2.17480111 46.43034172 2.16796875 48.37109375 C2.16685593 49.28990829 2.1657431 50.20872284 2.16459656 51.15538025 C2.15821671 52.00959061 2.15183685 52.86380096 2.14526367 53.74389648 C2.14145187 54.49509262 2.13764008 55.24628876 2.13371277 56.02024841 C2 58 2 58 1 61 C-0.81242052 61.02687279 -2.62495233 61.04633715 -4.4375 61.0625 C-5.44683594 61.07410156 -6.45617187 61.08570313 -7.49609375 61.09765625 C-10 61 -10 61 -11 60 C-11.09295815 58.55710213 -11.11746513 57.10970215 -11.11352539 55.66381836 C-11.11344986 54.7429393 -11.11337433 53.82206024 -11.11329651 52.87327576 C-11.10813522 51.87224319 -11.10297394 50.87121063 -11.09765625 49.83984375 C-11.0962413 48.82024063 -11.09482635 47.80063751 -11.09336853 46.75013733 C-11.08775097 43.47922893 -11.0751955 40.20838787 -11.0625 36.9375 C-11.05748726 34.72591244 -11.05292396 32.51432382 -11.04882812 30.30273438 C-11.03777584 24.86846643 -11.02102063 19.43423803 -11 14 C-10.01 13.67 -9.02 13.34 -8 13 C-8.99 12.34 -9.98 11.68 -11 11 C-11.9375 7.625 -11.9375 7.625 -12 4 C-8.36442157 -0.76386139 -5.72083569 -1.48741728 0 0 Z M-9 15 C-9 29.52 -9 44.04 -9 59 C-6.36 59 -3.72 59 -1 59 C0.19090955 58.02810605 0.19090955 58.02810605 0.12025452 56.24729919 C0.11803391 55.48562943 0.11581329 54.72395966 0.11352539 53.93920898 C0.11344986 53.07839218 0.11337433 52.21757538 0.11329651 51.33067322 C0.10555458 49.92755638 0.10555458 49.92755638 0.09765625 48.49609375 C0.09553383 47.06657127 0.09553383 47.06657127 0.09336853 45.60816956 C0.08775152 42.55124835 0.07519616 39.49439923 0.0625 36.4375 C0.05748719 34.37044376 0.05292391 32.30338638 0.04882812 30.23632812 C0.03777656 25.15752412 0.02050055 20.0787743 0 15 C-2.97 15 -5.94 15 -9 15 Z " fill="#9299A2" transform="translate(423,603)"/>
<path d="M0 0 C1.32 0.66 2.64 1.32 4 2 C3.85969417 5.66689972 3.71174579 9.33345412 3.5625 13 C3.50352539 14.54494141 3.50352539 14.54494141 3.44335938 16.12109375 C3.20814561 21.80241075 2.80518623 27.37046268 2 33 C2.66 33 3.32 33 4 33 C3.814375 33.78375 3.62875 34.5675 3.4375 35.375 C2.74037734 37.97089775 2.74037734 37.97089775 4 40 C-0.8547265 39.58388059 -2.80439079 37.54108048 -6 34 C-6.66 33.34 -7.32 32.68 -8 32 C-10.27369065 23.06535644 -8.03967061 15.07934122 -4 7 C-3.34 7 -2.68 7 -2 7 C-1.34 4.69 -0.68 2.38 0 0 Z " fill="#92C8DF" transform="translate(106,616)"/>
<path d="M0 0 C3.2734375 1.8984375 3.2734375 1.8984375 6.375 4.375 C7.93347656 5.59316406 7.93347656 5.59316406 9.5234375 6.8359375 C12 9 12 9 13 11 C11.68 10.67 10.36 10.34 9 10 C9 9.34 9 8.68 9 8 C7.8553125 7.566875 7.8553125 7.566875 6.6875 7.125 C4 6 4 6 1 4 C-1.33290794 4.78396052 -1.33290794 4.78396052 -4 6 C-18.26392596 9.43215879 -32.84183785 10.49926118 -47.3125 7.75 C-51.21243223 7.02373711 -53.43909716 6.64168238 -56.8125 8.875 C-57.534375 9.57625 -58.25625 10.2775 -59 11 C-59.66 10.67 -60.32 10.34 -61 10 C-59.47392422 8.6488499 -57.92837144 7.31967839 -56.375 6 C-55.51648438 5.2575 -54.65796875 4.515 -53.7734375 3.75 C-50.52700512 1.70154689 -48.76256019 1.74705478 -45 2 C-44.34 1.67 -43.68 1.34 -43 1 C-41.1746875 1.4640625 -41.1746875 1.4640625 -39.3125 1.9375 C-29.93319248 4.18004849 -19.46922678 3.57820446 -10 2 C-6.23358357 -0.51094429 -4.46859807 -0.47978632 0 0 Z " fill="#B1BCCE" transform="translate(187,628)"/>
<path d="M0 0 C4.62 0 9.24 0 14 0 C14 4.73113419 12.8394052 6.32547562 10 10 C9.34 10 8.68 10 8 10 C7.7525 10.721875 7.505 11.44375 7.25 12.1875 C5.89016326 15.24713266 4.17082246 17.4673738 2 20 C2.28875 20.556875 2.5775 21.11375 2.875 21.6875 C4.0413253 24.08494645 5.0339881 26.51596939 6 29 C5.01 29 4.02 29 3 29 C3 28.34 3 27.68 3 27 C2.34 27 1.68 27 1 27 C1 26.34 1 25.68 1 25 C0.34 25 -0.32 25 -1 25 C-2.125 19.25 -2.125 19.25 -1 17 C-0.34 17 0.32 17 1 17 C-0.65 15.35 -2.3 13.7 -4 12 C-4.33 12.66 -4.66 13.32 -5 14 C-6.32 14 -7.64 14 -9 14 C-9.99 11.03 -10.98 8.06 -12 5 C-10.515 5.99 -10.515 5.99 -9 7 C-9 7.66 -9 8.32 -9 9 C-8.01 9.33 -7.02 9.66 -6 10 C-5.319375 8.5459375 -5.319375 8.5459375 -4.625 7.0625 C-3 4 -3 4 -1 3 C-0.67 2.01 -0.34 1.02 0 0 Z " fill="#44C8F1" transform="translate(429,557)"/>
<path d="M0 0 C3.41019088 1.25040332 5.62722309 3.28825496 8 6 C8 6.66 8 7.32 8 8 C8.99 8.33 9.98 8.66 11 9 C15.84217168 17.34019537 16.50626025 27.63067096 14.31640625 36.890625 C13.63647602 38.95969497 12.83273338 40.98756099 12 43 C11.34 43 10.68 43 10 43 C10 42.01 10 41.02 10 40 C8.02 40.495 8.02 40.495 6 41 C6.2165625 40.21496094 6.433125 39.42992187 6.65625 38.62109375 C8.8810895 30.22644471 10.17212277 23.93546937 6.65625 15.796875 C6 14 6 14 6 11 C5.34 11 4.68 11 4 11 C2.4921875 9.57421875 2.4921875 9.57421875 0.875 7.6875 C0.33617187 7.07261719 -0.20265625 6.45773437 -0.7578125 5.82421875 C-2 4 -2 4 -2 1 C-1.34 0.67 -0.68 0.34 0 0 Z " fill="#6292A7" transform="translate(217,612)"/>
<path d="M0 0 C0.99 0.33 1.98 0.66 3 1 C3 1.99 3 2.98 3 4 C4.32 3.67 5.64 3.34 7 3 C6.67 4.32 6.34 5.64 6 7 C5.505 6.505 5.505 6.505 5 6 C4.67 6.99 4.34 7.98 4 9 C-24.05 9.33 -52.1 9.66 -81 10 C-79.02 12.64 -77.04 15.28 -75 18 C-77.475 17.01 -77.475 17.01 -80 16 C-80 15.34 -80 14.68 -80 14 C-80.66 14 -81.32 14 -82 14 C-83.625 11.5 -83.625 11.5 -85 9 C-84.34 9 -83.68 9 -83 9 C-82.67 8.01 -82.34 7.02 -82 6 C-54.28 6.33 -26.56 6.66 2 7 C1.34 4.69 0.68 2.38 0 0 Z " fill="#C3C7CF" transform="translate(201,562)"/>
<path d="M0 0 C2.625 2.0625 2.625 2.0625 4 4 C3.34 4.33 2.68 4.66 2 5 C1.505 4.01 1.505 4.01 1 3 C-1.57951874 2.30906104 -1.57951874 2.30906104 -4.5625 1.875 C-5.57441406 1.70742188 -6.58632813 1.53984375 -7.62890625 1.3671875 C-8.41136719 1.24601563 -9.19382812 1.12484375 -10 1 C-10 1.66 -10 2.32 -10 3 C-12.64 3.66 -15.28 4.32 -18 5 C-18 5.66 -18 6.32 -18 7 C-18.66 7 -19.32 7 -20 7 C-20 5.35 -20 3.7 -20 2 C-22.97 2 -25.94 2 -29 2 C-29 14.87 -29 27.74 -29 41 C-25.7 41 -22.4 41 -19 41 C-19.01047363 40.22809326 -19.02094727 39.45618652 -19.03173828 38.66088867 C-19.07326454 35.16979212 -19.09931557 31.67874751 -19.125 28.1875 C-19.14175781 26.97255859 -19.15851563 25.75761719 -19.17578125 24.50585938 C-19.18222656 23.34248047 -19.18867188 22.17910156 -19.1953125 20.98046875 C-19.20578613 19.90692139 -19.21625977 18.83337402 -19.22705078 17.72729492 C-19 15 -19 15 -17 12 C-13.875 11.3125 -13.875 11.3125 -11 11 C-11.33 11.66 -11.66 12.32 -12 13 C-13.32 13 -14.64 13 -16 13 C-16.97432088 16.30411144 -17.17917647 19.38710995 -17.28125 22.82421875 C-17.31863281 23.93474609 -17.35601562 25.04527344 -17.39453125 26.18945312 C-17.46519676 28.53319251 -17.53550575 30.87694267 -17.60546875 33.22070312 C-17.64285156 34.32736328 -17.68023437 35.43402344 -17.71875 36.57421875 C-17.76418945 38.09921997 -17.76418945 38.09921997 -17.81054688 39.6550293 C-18 42 -18 42 -19 43 C-20.64230364 43.1245486 -22.29052276 43.17568524 -23.9375 43.1875 C-24.83339844 43.20167969 -25.72929687 43.21585938 -26.65234375 43.23046875 C-29 43 -29 43 -31 41 C-31.18776167 37.99864387 -31.25550182 35.09112854 -31.23046875 32.08984375 C-31.23001053 31.20720352 -31.22955231 30.32456329 -31.2290802 29.41517639 C-31.22605687 27.54817359 -31.21816817 25.68117333 -31.20581055 23.81420898 C-31.18755226 20.94571061 -31.18530084 18.07753479 -31.18554688 15.20898438 C-31.18063188 13.39843469 -31.17480364 11.58788721 -31.16796875 9.77734375 C-31.16685593 8.91382797 -31.1657431 8.05031219 -31.16459656 7.16062927 C-31.11604615 1.11604615 -31.11604615 1.11604615 -30 0 C-27.98035801 -0.07244053 -25.95832876 -0.08377188 -23.9375 -0.0625 C-22.28041016 -0.04896484 -22.28041016 -0.04896484 -20.58984375 -0.03515625 C-19.73519531 -0.02355469 -18.88054687 -0.01195312 -18 0 C-17.67 0.99 -17.34 1.98 -17 3 C-16.401875 2.525625 -15.80375 2.05125 -15.1875 1.5625 C-10.39966563 -1.85738169 -5.51527891 -1.20957017 0 0 Z " fill="#8D9DAA" transform="translate(295,557)"/>
<path d="M0 0 C0.66 0.66 1.32 1.32 2 2 C1.70640699 4.0062189 1.36270588 6.00511766 1 8 C0.72289825 13.4430701 1.08673314 18.6345572 2 24 C2.8353125 24.0928125 2.8353125 24.0928125 3.6875 24.1875 C6 25 6 25 8 27.625 C11.55349414 30.43818286 12.33801264 30.23018445 16.6875 29.8125 C17.72777344 29.67585937 18.76804687 29.53921875 19.83984375 29.3984375 C24.2367306 28.84407105 28.5769113 28.91192965 33 29 C29.64654488 32.76602531 25.84698407 33.95457206 21 35 C14.22469657 35 8.62697134 32.76745585 3 29 C-0.62830929 25.37169071 -3.03089568 21.03934249 -4 16 C-3.9912913 10.10420801 -3.79224736 4.78152928 0 0 Z " fill="#4E9CB7" transform="translate(361,566)"/>
<path d="M0 0 C-0.33 0.99 -0.66 1.98 -1 3 C-0.855625 3.721875 -0.71125 4.44375 -0.5625 5.1875 C0.17118432 8.85592161 0.06337948 12.26061046 0 16 C-0.66 16 -1.32 16 -2 16 C-2.12375 16.804375 -2.2475 17.60875 -2.375 18.4375 C-2.58125 19.283125 -2.7875 20.12875 -3 21 C-6.96025453 22.98012727 -11.88161764 22.49729124 -16.11328125 21.50390625 C-18 20.8125 -18 20.8125 -21 19 C-21.8125 16.6875 -21.8125 16.6875 -22 14 C-22.4125 13.071875 -22.825 12.14375 -23.25 11.1875 C-24.15566937 7.33840519 -23.66442554 5.33659894 -22.109375 1.76953125 C-17.02251343 -6.34437118 -7.06844895 -2.97618903 0 0 Z M-17 0.9375 C-19.45325146 4.69404131 -20.16226991 7.54659259 -20 12 C-19.27764004 15.02077801 -18.75867244 16.40992144 -16.3125 18.3125 C-12.12002009 19.55891295 -8.46403382 19.7883259 -4.5625 17.6875 C-2.66029598 16.01641903 -2.66029598 16.01641903 -3 13 C-2.34 12.67 -1.68 12.34 -1 12 C-1.28359887 10.5608866 -1.57721399 9.12374482 -1.875 7.6875 C-2.03742188 6.88699219 -2.19984375 6.08648438 -2.3671875 5.26171875 C-2.94478999 2.74698882 -2.94478999 2.74698882 -5 0 C-9.5317535 -1.56697174 -12.95728146 -1.67342239 -17 0.9375 Z " fill="#54A0BB" transform="translate(344,569)"/>
<path d="M0 0 C0.65425461 0.16265854 1.30850922 0.32531708 1.98258972 0.49290466 C5.76010249 1.12774015 9.46131164 1.13140726 13.27856445 1.11352539 C14.09859451 1.11367142 14.91862457 1.11381744 15.76350403 1.1139679 C18.46345704 1.1132734 21.16334035 1.1055027 23.86328125 1.09765625 C25.73943545 1.09579043 27.61559013 1.0943673 29.491745 1.09336853 C34.422021 1.0895563 39.3522674 1.07973707 44.28253174 1.06866455 C49.31660563 1.05842259 54.35068431 1.05386494 59.38476562 1.04882812 C69.2565234 1.03811364 79.12825924 1.02105276 89 1 C88.67 1.66 88.34 2.32 88 3 C79.61560738 4.45692207 71.06705236 4.16390825 62.58203125 4.16796875 C60.99501008 4.17118768 59.4079892 4.17455222 57.82096863 4.17805481 C54.51027742 4.18401301 51.1996122 4.1858979 47.88891602 4.18530273 C43.65566925 4.18520076 39.42258885 4.19890451 35.1893816 4.21607494 C31.9182204 4.22720747 28.64709945 4.22922163 25.37592125 4.22869301 C23.81507476 4.22986924 22.2542271 4.23427091 20.69339943 4.24202538 C18.5113827 4.25186031 16.32972806 4.2489347 14.14770508 4.24291992 C12.28980095 4.24505745 12.28980095 4.24505745 10.3943634 4.24723816 C6.91858783 3.99407011 4.20336817 3.35912416 1 2 C0.67 1.34 0.34 0.68 0 0 Z " fill="#8191A1" transform="translate(115,646)"/>
<path d="M0 0 C2.40028779 6.19021587 2.86135845 12.39795558 1.3125 18.875 C-0.54351784 21.87998126 -1.63881345 22.76527841 -5 24 C-8.71039886 23.94251495 -12.33021572 23.53343624 -16 23 C-16.33 22.01 -16.66 21.02 -17 20 C-17.680625 19.46375 -18.36125 18.9275 -19.0625 18.375 C-21.95936316 14.82400645 -21.33962889 11.41517556 -21 7 C-20.67 7 -20.34 7 -20 7 C-20 9.31 -20 11.62 -20 14 C-19.34 14 -18.68 14 -18 14 C-17.67 15.32 -17.34 16.64 -17 18 C-9.97217958 19.0390717 -9.97217958 19.0390717 -3 18 C-0.80160979 10.93300351 -0.80160979 10.93300351 -3 4 C-5.00136244 2.57944932 -5.00136244 2.57944932 -7 2 C-7 1.34 -7 0.68 -7 0 C-12.61735276 0.90428836 -12.61735276 0.90428836 -17 4.125 C-17.33 4.74375 -17.66 5.3625 -18 6 C-18.66 5.67 -19.32 5.34 -20 5 C-18.9375 2.0625 -18.9375 2.0625 -17 -1 C-13.75 -1.875 -13.75 -1.875 -10 -2 C-8.7625 -2.061875 -7.525 -2.12375 -6.25 -2.1875 C-3 -2 -3 -2 0 0 Z " fill="#54C2E4" transform="translate(390,568)"/>
<path d="M0 0 C0.99 0 1.98 0 3 0 C4.37079611 2.74159221 4.13476726 4.9381126 4.14526367 8.00683594 C4.15164352 9.26864685 4.15802338 10.53045776 4.16459656 11.83050537 C4.16612566 13.21512819 4.16723939 14.59975153 4.16796875 15.984375 C4.17118192 17.40203892 4.17454604 18.8197025 4.17805481 20.23736572 C4.18404909 23.21326465 4.18589452 26.18913452 4.18530273 29.16503906 C4.18520137 32.96915162 4.19882574 36.77307646 4.21607494 40.57714462 C4.22722486 43.50776007 4.22922099 46.43833067 4.22869301 49.36896515 C4.22986969 50.77072036 4.2342739 52.17247685 4.24202538 53.57421112 C4.25188034 55.5413114 4.24766883 57.50846671 4.24291992 59.47558594 C4.24434494 60.59318298 4.24576996 61.71078003 4.24723816 62.86224365 C3.90297121 67.23141465 3.2595265 70.81919391 0 73.875 C-2 75 -2 75 -4 75 C-3.75 72.6875 -3.75 72.6875 -3 70 C-2.33389709 69.57776657 -1.66779419 69.15553314 -0.98150635 68.72050476 C1.28205287 67.1215996 1.28205287 67.1215996 1.48101807 64.20954895 C1.47213562 63.07925766 1.46325317 61.94896637 1.45410156 60.78442383 C1.45379944 59.5033223 1.45349731 58.22222076 1.45318604 56.90229797 C1.43275939 55.50386943 1.4118954 54.10544721 1.390625 52.70703125 C1.38316359 51.27643117 1.37747018 49.84582086 1.37347412 48.41520691 C1.35820957 44.65186285 1.31892176 40.88913742 1.2746582 37.1260376 C1.23372257 33.28528207 1.21546682 29.44442647 1.1953125 25.60351562 C1.15242737 18.06872855 1.08416728 10.53445099 1 3 C0.51789063 3.5053125 0.03578125 4.010625 -0.4609375 4.53125 C-1.09257812 5.1809375 -1.72421875 5.830625 -2.375 6.5 C-3.00148437 7.1496875 -3.62796875 7.799375 -4.2734375 8.46875 C-6 10 -6 10 -8 10 C-6.44303593 6.17836093 -3.96591316 3.81381505 -1 1 C-0.67 0.67 -0.34 0.34 0 0 Z " fill="#7A7F86" transform="translate(209,574)"/>
<path d="M0 0 C2.375 1.75 2.375 1.75 4 4 C4.375 6.625 4.375 6.625 4 9 C3.34 9.66 2.68 10.32 2 11 C0.68 11 -0.64 11 -2 11 C-2 11.66 -2 12.32 -2 13 C-7.625 13.25 -7.625 13.25 -11 11 C-11.9375 7.625 -11.9375 7.625 -12 4 C-8.36442157 -0.76386139 -5.72083569 -1.48741728 0 0 Z " fill="#DFE2E4" transform="translate(423,603)"/>
<path d="M0 0 C1.93166016 0.01740234 1.93166016 0.01740234 3.90234375 0.03515625 C5.19269531 0.04417969 6.48304688 0.05320312 7.8125 0.0625 C8.81152344 0.07410156 9.81054688 0.08570313 10.83984375 0.09765625 C11.49984375 1.41765625 12.15984375 2.73765625 12.83984375 4.09765625 C9.20984375 3.76765625 5.57984375 3.43765625 1.83984375 3.09765625 C2.16984375 5.07765625 2.49984375 7.05765625 2.83984375 9.09765625 C3.43796875 9.11828125 4.03609375 9.13890625 4.65234375 9.16015625 C8.12952051 10.65037486 8.47648956 13.71890891 9.83984375 17.09765625 C10.82984375 17.75765625 11.81984375 18.41765625 12.83984375 19.09765625 C12.95012623 22.26138503 12.81461371 25.07180783 11.83984375 28.09765625 C9.8891562 29.86336481 8.00211621 30.95430979 5.65234375 32.125 C3.66478104 32.96724013 3.66478104 32.96724013 2.83984375 35.09765625 C2.17984375 35.09765625 1.51984375 35.09765625 0.83984375 35.09765625 C2.18913839 31.26102553 3.917354 28.44593056 6.46484375 25.28515625 C7.09648437 24.49496094 7.728125 23.70476563 8.37890625 22.890625 C8.86101562 22.29894531 9.343125 21.70726562 9.83984375 21.09765625 C8.60234375 19.67453125 8.60234375 19.67453125 7.33984375 18.22265625 C4.83984375 15.34765625 4.83984375 15.34765625 4.83984375 13.09765625 C4.17984375 13.09765625 3.51984375 13.09765625 2.83984375 13.09765625 C1.86328125 11.30729167 0.88671875 9.51692708 -0.08984375 7.7265625 C-1.07425649 5.9314731 -1.07425649 5.9314731 -3.16015625 5.09765625 C-3.84765625 3.09765625 -3.84765625 3.09765625 -4.16015625 1.09765625 C-3.16015625 0.09765625 -3.16015625 0.09765625 0 0 Z " fill="#53A2BE" transform="translate(404.16015625,556.90234375)"/>
<path d="M0 0 C0.33 0 0.66 0 1 0 C1 6.27 1 12.54 1 19 C1.66 19 2.32 19 3 19 C2.814375 19.78375 2.62875 20.5675 2.4375 21.375 C1.74037734 23.97089775 1.74037734 23.97089775 3 26 C-0.50946994 25.69918829 -1.97788231 25.0180963 -4.75 22.75 C-9.0601417 17.48204903 -8.11393136 11.51940569 -8 5 C-7.67 5 -7.34 5 -7 5 C-7 7.31 -7 9.62 -7 12 C-6.34 12 -5.68 12 -5 12 C-5.33 10.02 -5.66 8.04 -6 6 C-5.34 5.67 -4.68 5.34 -4 5 C-2.9739266 3.68662604 -1.97272675 2.35335895 -1 1 C-0.67 0.67 -0.34 0.34 0 0 Z " fill="#78D1F2" transform="translate(107,630)"/>
<path d="M0 0 C0.12117187 0.96421875 0.24234375 1.9284375 0.3671875 2.921875 C0.53476563 4.18515625 0.70234375 5.4484375 0.875 6.75 C1.11863281 8.62945313 1.11863281 8.62945313 1.3671875 10.546875 C1.92760311 14.65345068 1.92760311 14.65345068 4 18 C6.82517725 18.46588547 9.29079561 18.69615501 12.125 18.75 C13.25615234 18.79447266 13.25615234 18.79447266 14.41015625 18.83984375 C16.27285953 18.91057932 18.13643755 18.95754983 20 19 C20.33 19.99 20.66 20.98 21 22 C19.06388819 23.93611181 15.65525409 23.70714792 13.0625 24.0625 C11.16177734 24.32740234 11.16177734 24.32740234 9.22265625 24.59765625 C6 25 6 25 4 25 C4.33 23.02 4.66 21.04 5 19 C4.1028125 18.9071875 4.1028125 18.9071875 3.1875 18.8125 C0.12856542 17.6763243 -0.55041099 15.82669858 -2 13 C-2.99 14.98 -3.98 16.96 -5 19 C-6.32 18.67 -7.64 18.34 -9 18 C-8.35289062 17.47792969 -7.70578125 16.95585938 -7.0390625 16.41796875 C-4.39807959 13.28622847 -4.47470958 11.35980238 -4.375 7.3125 C-4.31406354 5.20550472 -4.20481609 3.09790198 -4 1 C-2 0 -2 0 0 0 Z " fill="#96A1AC" transform="translate(207,536)"/>
<path d="M0 0 C8.07094823 -0.10466648 15.9874678 -0.03387512 24 1 C23.73597107 4.16834718 23.24891534 5.71789594 21.125 8.125 C16.4102464 10.95385216 10.23375795 13.58844677 4.66015625 12.57421875 C4.11230469 12.38472656 3.56445312 12.19523438 3 12 C3 11.67 3 11.34 3 11 C5.64 10.67 8.28 10.34 11 10 C10.67 9.34 10.34 8.68 10 8 C10.99 8 11.98 8 13 8 C13 6.68 13 5.36 13 4 C8.71 3.67 4.42 3.34 0 3 C0 2.01 0 1.02 0 0 Z " fill="#5AA5C6" transform="translate(118,652)"/>
<path d="M0 0 C1.51400391 0.01740234 1.51400391 0.01740234 3.05859375 0.03515625 C4.07050781 0.04417969 5.08242187 0.05320312 6.125 0.0625 C7.29869141 0.07990234 7.29869141 0.07990234 8.49609375 0.09765625 C8.49609375 0.42765625 8.49609375 0.75765625 8.49609375 1.09765625 C5.19609375 1.09765625 1.89609375 1.09765625 -1.50390625 1.09765625 C-1.50390625 18.58765625 -1.50390625 36.07765625 -1.50390625 54.09765625 C2.12609375 54.09765625 5.75609375 54.09765625 9.49609375 54.09765625 C9.16609375 54.75765625 8.83609375 55.41765625 8.49609375 56.09765625 C6.68367323 56.12452904 4.87114142 56.1439934 3.05859375 56.16015625 C2.04925781 56.17175781 1.03992188 56.18335938 0 56.1953125 C-2.50390625 56.09765625 -2.50390625 56.09765625 -3.50390625 55.09765625 C-3.60265795 53.4151039 -3.63189529 51.72841597 -3.63330078 50.04296875 C-3.63645294 48.96515137 -3.6396051 47.88733398 -3.64285278 46.77685547 C-3.64082855 45.60396973 -3.63880432 44.43108398 -3.63671875 43.22265625 C-3.63767548 42.02785645 -3.6386322 40.83305664 -3.63961792 39.60205078 C-3.64029996 37.06998645 -3.63844403 34.53792037 -3.63427734 32.00585938 C-3.62892946 28.11454365 -3.63422158 24.22334336 -3.640625 20.33203125 C-3.63996422 17.87890599 -3.63868307 15.42578081 -3.63671875 12.97265625 C-3.63874298 11.79977051 -3.64076721 10.62688477 -3.64285278 9.41845703 C-3.63970062 8.34063965 -3.63654846 7.26282227 -3.63330078 6.15234375 C-3.63250519 5.19827637 -3.63170959 4.24420898 -3.63088989 3.26123047 C-3.44695525 0.12731304 -3.15509066 0.12305346 0 0 Z " fill="#69717A" transform="translate(246.50390625,543.90234375)"/>
<path d="M0 0 C1.12253254 3.36759761 0.80354757 4.82754593 -0.640625 8.015625 C-3.50582455 12.19815768 -7.80428043 15.22924179 -12 18 C-12.66 18 -13.32 18 -14 18 C-13.67 16.68 -13.34 15.36 -13 14 C-14.60875 14.495 -14.60875 14.495 -16.25 15 C-21.79160922 16.41530308 -27.32102129 16.17036936 -33 16 C-33 15.34 -33 14.68 -33 14 C-32.1646875 14.03480469 -32.1646875 14.03480469 -31.3125 14.0703125 C-23.88579346 14.24594407 -17.18871735 13.51609104 -11 9 C-9.31337542 7.35353315 -7.64488294 5.68816933 -6 4 C-3 2 -3 2 0 2 C0 1.34 0 0.68 0 0 Z " fill="#5C9DB7" transform="translate(227,650)"/>
<path d="M0 0 C1.81242052 -0.02687279 3.62495233 -0.04633715 5.4375 -0.0625 C6.44683594 -0.07410156 7.45617187 -0.08570313 8.49609375 -0.09765625 C11 0 11 0 12 1 C12.06879045 2.40788134 12.06770884 3.81927636 12.03759766 5.22851562 C12.02072906 6.12614624 12.00386047 7.02377686 11.98648071 7.9486084 C11.9625827 8.92463013 11.93868469 9.90065186 11.9140625 10.90625 C11.89282318 11.9012854 11.87158386 12.8963208 11.84970093 13.92150879 C11.80334921 16.02992314 11.75441404 18.13828201 11.703125 20.24658203 C11.62533899 23.48588339 11.5581904 26.72528332 11.4921875 29.96484375 C11.44595266 32.00782709 11.39909853 34.05079652 11.3515625 36.09375 C11.33171295 37.06977173 11.3118634 38.04579346 11.29141235 39.0513916 C11.26823944 39.94902222 11.24506653 40.84665283 11.22119141 41.77148438 C11.20263092 42.56566772 11.18407043 43.35985107 11.16494751 44.17810059 C11 46 11 46 10 47 C8.21162378 47.12524459 6.41771786 47.17573676 4.625 47.1875 C3.64789063 47.20167969 2.67078125 47.21585938 1.6640625 47.23046875 C-1 47 -1 47 -4 45 C-6.40084462 45.80972016 -6.40084462 45.80972016 -9 47 C-13.33385653 48.01430685 -16.65187194 47.93174173 -21 47 C-21 46.67 -21 46.34 -21 46 C-19.67935547 45.80083984 -19.67935547 45.80083984 -18.33203125 45.59765625 C-17.17058594 45.42105469 -16.00914062 45.24445312 -14.8125 45.0625 C-13.66394531 44.88847656 -12.51539063 44.71445312 -11.33203125 44.53515625 C-8.53674788 44.08620687 -5.77066414 43.57917838 -3 43 C-3 42.34 -3 41.68 -3 41 C-2.34 41 -1.68 41 -1 41 C-1 42.32 -1 43.64 -1 45 C0.485 44.505 0.485 44.505 2 44 C4.64 44 7.28 44 10 44 C10 29.81 10 15.62 10 1 C6.7 1 3.4 1 0 1 C0 0.67 0 0.34 0 0 Z " fill="#A2A8B0" transform="translate(331,617)"/>
<path d="M0 0 C-0.875 5.875 -0.875 5.875 -2 7 C-7.46747074 8.13953601 -11.78021347 8.27529157 -17 6 C-17.33 4.02 -17.66 2.04 -18 0 C-12.42430109 -2.49439162 -5.57545006 -2.78772503 0 0 Z " fill="#58B8E3" transform="translate(131,656)"/>
<path d="M0 0 C0.625 1.8125 0.625 1.8125 1 4 C0.01 5.485 0.01 5.485 -1 7 C-0.87214391 9.8796679 -0.63223212 12.59225964 -0.25 15.4375 C-0.16234375 16.20126953 -0.0746875 16.96503906 0.015625 17.75195312 C0.50219756 21.63439667 1.18463851 24.50955496 3 28 C2.67 28.99 2.34 29.98 2 31 C1.67 30.01 1.34 29.02 1 28 C0.34 28 -0.32 28 -1 28 C-1.66 25.36 -2.32 22.72 -3 20 C-3.66 22.97 -4.32 25.94 -5 29 C-5.66 29 -6.32 29 -7 29 C-6.92894043 28.36497559 -6.85788086 27.72995117 -6.78466797 27.07568359 C-6.46796846 24.17674636 -6.17132797 21.27608744 -5.875 18.375 C-5.76285156 17.37597656 -5.65070313 16.37695312 -5.53515625 15.34765625 C-5.00891559 10.0501669 -4.70709124 5.97646124 -7 1 C-4 0 -4 0 0 0 Z " fill="#8998A5" transform="translate(112,524)"/>
<path d="M0 0 C3.74081416 3.11734513 5.47297747 6.19729467 6 11 C5.75838926 21.48322148 5.75838926 21.48322148 4 25 C3.34 25 2.68 25 2 25 C1.938125 25.556875 1.87625 26.11375 1.8125 26.6875 C0.64327572 30.01529218 -1.35322804 31.73133832 -4 34 C-4.99 34 -5.98 34 -7 34 C-5.67917738 29.64128534 -3.37068021 26.92381578 -0.33984375 23.6484375 C2.54529556 20.09879088 2.16181432 16.36898676 2 12 C1.67 11.67 1.34 11.34 1 11 C0.76636119 9.15108054 0.58696365 7.29511969 0.4375 5.4375 C0.35371094 4.42558594 0.26992188 3.41367187 0.18359375 2.37109375 C0.12300781 1.58863281 0.06242187 0.80617188 0 0 Z " fill="#549EB8" transform="translate(350,564)"/>
<path d="M0 0 C4.02550319 1.3418344 4.88285636 3.4227573 7 7 C7 7.66 7 8.32 7 9 C7.66 9 8.32 9 9 9 C8.67 10.65 8.34 12.3 8 14 C3.71 14 -0.58 14 -5 14 C-5.33 12.68 -5.66 11.36 -6 10 C-6.66 10 -7.32 10 -8 10 C-12 4.58823529 -12 4.58823529 -12 2 C-10.68 1.67 -9.36 1.34 -8 1 C-8 2.65 -8 4.3 -8 6 C-7.34 6 -6.68 6 -6 6 C-6 6.99 -6 7.98 -6 9 C-5.34 9 -4.68 9 -4 9 C-4 9.66 -4 10.32 -4 11 C-0.535 10.505 -0.535 10.505 3 10 C3.33 8.68 3.66 7.36 4 6 C2.68 6 1.36 6 0 6 C0 4.02 0 2.04 0 0 Z " fill="#57C0E1" transform="translate(435,586)"/>
<path d="M0 0 C7.92 0 15.84 0 24 0 C23.67 1.32 23.34 2.64 23 4 C22.15405273 4.029729 22.15405273 4.029729 21.29101562 4.06005859 C18.69360426 4.15631811 16.09688897 4.26558052 13.5 4.375 C12.1696875 4.42140625 12.1696875 4.42140625 10.8125 4.46875 C5.27163824 4.71319978 0.33301067 5.46738245 -5 7 C-5 6.34 -5 5.68 -5 5 C-3.35 4.34 -1.7 3.68 0 3 C0 2.01 0 1.02 0 0 Z " fill="#929CA5" transform="translate(125,561)"/>
<path d="M0 0 C-1.13532585 3.40597755 -1.48116822 3.53452572 -4.5 5.0625 C-7.33019068 6.42445528 -7.33019068 6.42445528 -9 9 C-6.03 9.495 -6.03 9.495 -3 10 C-3.33 11.32 -3.66 12.64 -4 14 C-4.33 13.34 -4.66 12.68 -5 12 C-11.56324417 9.89480847 -18.14741173 9.43399726 -25 9 C-25.33 7.68 -25.66 6.36 -26 5 C-24.85402344 4.97421875 -23.70804687 4.9484375 -22.52734375 4.921875 C-20.9973597 4.86555657 -19.46741325 4.8082101 -17.9375 4.75 C-17.18533203 4.73582031 -16.43316406 4.72164062 -15.65820312 4.70703125 C-9.85864582 4.45596816 -5.05494544 0 0 0 Z " fill="#A7AEB6" transform="translate(103,556)"/>
<path d="M0 0 C0.33 0.99 0.66 1.98 1 3 C2.49985609 4.66710346 2.49985609 4.66710346 4 6 C3.34 6.66 2.68 7.32 2 8 C2 7.34 2 6.68 2 6 C1.34 6 0.68 6 0 6 C0.01252808 6.64986877 0.02505615 7.29973755 0.03796387 7.96929932 C0.16910138 14.78354356 0.29862502 21.59781718 0.42724609 28.41210938 C0.47534157 30.9492265 0.52383723 33.48633607 0.57275391 36.0234375 C0.64332706 39.68748046 0.71242171 43.3515489 0.78125 47.015625 C0.81406067 48.69449799 0.81406067 48.69449799 0.84753418 50.4072876 C0.98095101 57.60575657 1.02553284 64.80034739 1 72 C0.34 71.67 -0.32 71.34 -1 71 C-2.09079724 32.45946444 -2.09079724 32.45946444 -2.1875 15.25 C-2.20039062 14.15260498 -2.21328125 13.05520996 -2.2265625 11.92456055 C-2.22785156 10.92336182 -2.22914062 9.92216309 -2.23046875 8.890625 C-2.23457764 8.03500977 -2.23868652 7.17939453 -2.24291992 6.29785156 C-1.97819461 3.79373633 -1.25810428 2.16280497 0 0 Z " fill="#D8E0EB" transform="translate(114,572)"/>
<path d="M0 0 C-1 2 -1 2 -3.25 2.8125 C-6.71626957 4.30929822 -8.4162538 6.23599244 -11 9 C-12.32926625 10.33738804 -13.66290906 11.6704349 -15 13 C-15.68707031 13.68707031 -16.37414062 14.37414062 -17.08203125 15.08203125 C-29 27 -29 27 -31.0234375 28.98828125 C-32.09464844 30.04595703 -32.09464844 30.04595703 -33.1875 31.125 C-33.86167969 31.78757812 -34.53585938 32.45015625 -35.23046875 33.1328125 C-37.17553358 35.07943317 -37.17553358 35.07943317 -39 38 C-39.66 38 -40.32 38 -41 38 C-41 37.34 -41 36.68 -41 36 C-40.34 36 -39.68 36 -39 36 C-39 35.01 -39 34.02 -39 33 C-38.34 33 -37.68 33 -37 33 C-37 32.34 -37 31.68 -37 31 C-36.34 31 -35.68 31 -35 31 C-35 30.01 -35 29.02 -35 28 C-34.01 28 -33.02 28 -32 28 C-32 27.34 -32 26.68 -32 26 C-30.70703125 24.73046875 -30.70703125 24.73046875 -28.8125 23.1875 C-24.70461075 19.70022711 -20.8717149 15.99356982 -17.0625 12.1875 C-16.48282471 11.61217529 -15.90314941 11.03685059 -15.3059082 10.4440918 C-12.28349447 7.50273942 -12.28349447 7.50273942 -10 4 C-9.34 4 -8.68 4 -8 4 C-8 3.34 -8 2.68 -8 2 C-3.61016949 -1.20338983 -3.61016949 -1.20338983 0 0 Z " fill="#83909C" transform="translate(207,575)"/>
<path d="M0 0 C3 1 3 1 4 3 C4.039992 4.99960012 4.04346799 7.00047242 4 9 C4.66 9 5.32 9 6 9 C6 8.34 6 7.68 6 7 C6.66 7 7.32 7 8 7 C7.67 13.27 7.34 19.54 7 26 C5.68 26 4.36 26 3 26 C2.95101562 24.87722656 2.90203125 23.75445313 2.8515625 22.59765625 C2.47797144 14.86613308 2.04678841 7.50489083 0 0 Z " fill="#ABB3BC" transform="translate(104,573)"/>
<path d="M0 0 C2.52290922 1.20138534 4.53837136 2.39521899 6.625 4.25 C6.625 4.91 6.625 5.57 6.625 6.25 C8.275 6.58 9.925 6.91 11.625 7.25 C11.295 8.24 10.965 9.23 10.625 10.25 C9.965 10.25 9.305 10.25 8.625 10.25 C8.625 10.91 8.625 11.57 8.625 12.25 C4.75197862 11.10569823 1.62236561 10.01679902 -1.375 7.25 C-1.375 6.59 -1.375 5.93 -1.375 5.25 C-2.365 4.92 -3.355 4.59 -4.375 4.25 C-4.375 2.93 -4.375 1.61 -4.375 0.25 C-2.375 -0.75 -2.375 -0.75 0 0 Z " fill="#5BA3BE" transform="translate(179.375,655.75)"/>
<path d="M0 0 C3.41019088 1.25040332 5.62722309 3.28825496 8 6 C8 6.66 8 7.32 8 8 C8.99 8.33 9.98 8.66 11 9 C11.75 10.9375 11.75 10.9375 12 13 C11.67 13.66 11.34 14.32 11 15 C9.35 14.67 7.7 14.34 6 14 C6 13.01 6 12.02 6 11 C5.34 11 4.68 11 4 11 C2.4921875 9.57421875 2.4921875 9.57421875 0.875 7.6875 C0.33617187 7.07261719 -0.20265625 6.45773437 -0.7578125 5.82421875 C-2 4 -2 4 -2 1 C-1.34 0.67 -0.68 0.34 0 0 Z " fill="#66A6C0" transform="translate(217,612)"/>
<path d="M0 0 C2.08898273 5.38737652 2.23396451 10.26786954 2 16 C0.35 16.33 -1.3 16.66 -3 17 C-2.62875 15.96875 -2.2575 14.9375 -1.875 13.875 C-0.91371022 9.61785953 -1.0317802 7.84697505 -3 4 C-5.00136244 2.57944932 -5.00136244 2.57944932 -7 2 C-7 1.34 -7 0.68 -7 0 C-12.61735276 0.90428836 -12.61735276 0.90428836 -17 4.125 C-17.33 4.74375 -17.66 5.3625 -18 6 C-18.66 5.67 -19.32 5.34 -20 5 C-18.9375 2.0625 -18.9375 2.0625 -17 -1 C-13.75 -1.875 -13.75 -1.875 -10 -2 C-8.7625 -2.061875 -7.525 -2.12375 -6.25 -2.1875 C-3 -2 -3 -2 0 0 Z " fill="#509EBA" transform="translate(390,568)"/>
<path d="M0 0 C0.33 0 0.66 0 1 0 C1 5.61 1 11.22 1 17 C1.66 17 2.32 17 3 17 C3 16.34 3 15.68 3 15 C8.41332987 12.57824716 13.3354395 12.46222821 19 14 C21.94792925 15.71645558 24.48459385 17.70240835 27 20 C25.68 20.33 24.36 20.66 23 21 C23 20.34 23 19.68 23 19 C14.84415212 16.43241826 8.29581585 17.34083683 0 19 C0 12.73 0 6.46 0 0 Z " fill="#568DA3" transform="translate(323,543)"/>
<path d="M0 0 C4.62 0 9.24 0 14 0 C14 4.71906188 12.71245796 6.27037031 10 10 C9.34 9.67 8.68 9.34 8 9 C8.33 7.02 8.66 5.04 9 3 C6.36 3 3.72 3 1 3 C0.67 4.32 0.34 5.64 0 7 C-0.99 7 -1.98 7 -3 7 C-3 7.99 -3 8.98 -3 10 C-3.66 10 -4.32 10 -5 10 C-4.39816251 7.97954558 -3.72693904 5.97888961 -3 4 C-2.34 3.67 -1.68 3.34 -1 3 C-0.67 2.01 -0.34 1.02 0 0 Z " fill="#5AAAC5" transform="translate(429,557)"/>
<path d="M0 0 C0.33 0.66 0.66 1.32 1 2 C1.99 2 2.98 2 4 2 C5.47694068 4.95388136 5.20930797 7.65161882 5.25 10.9375 C5.27578125 12.18402344 5.3015625 13.43054688 5.328125 14.71484375 C5 18 5 18 3.609375 19.94140625 C2 21 2 21 0 21 C0 14.07 0 7.14 0 0 Z " fill="#71B3CD" transform="translate(227,628)"/>
<path d="M0 0 C-0.55110002 3.85770014 -2.26310969 5.34360647 -5 8 C-6.03357147 9.64605826 -7.04060332 11.30963442 -8 13 C-9 14 -9 14 -11.72265625 14.09765625 C-13.37587891 14.08025391 -13.37587891 14.08025391 -15.0625 14.0625 C-16.71958984 14.04896484 -16.71958984 14.04896484 -18.41015625 14.03515625 C-19.26480469 14.02355469 -20.11945313 14.01195312 -21 14 C-21.33 12.35 -21.66 10.7 -22 9 C-21.01 8.34 -20.02 7.68 -19 7 C-19.66 8.65 -20.32 10.3 -21 12 C-17.04 12 -13.08 12 -9 12 C-9.061875 10.906875 -9.12375 9.81375 -9.1875 8.6875 C-9 5 -9 5 -7.75 3.1875 C-3.05263158 0 -3.05263158 0 0 0 Z " fill="#578295" transform="translate(423,586)"/>
<path d="M0 0 C2.1875 3 2.1875 3 4 6 C3.67 6.33 3.34 6.66 3 7 C1 7 -1 7 -3 7 C-3.99 7.495 -3.99 7.495 -5 8 C-7.125 7.0625 -7.125 7.0625 -9 6 C-9 4.68 -9 3.36 -9 2 C-3.375 0 -3.375 0 0 0 Z " fill="#5AC2F1" transform="translate(122,654)"/>
<path d="M0 0 C0.66 0 1.32 0 2 0 C2.33 0.99 2.66 1.98 3 3 C1.78515625 5.04296875 1.78515625 5.04296875 0.0625 7.1875 C-0.50339844 7.90292969 -1.06929688 8.61835937 -1.65234375 9.35546875 C-2.09707031 9.89816406 -2.54179687 10.44085937 -3 11 C-2.53980469 11.90492188 -2.53980469 11.90492188 -2.0703125 12.828125 C-0.91387937 15.17475573 0.052134 17.5626303 1 20 C0.01 20 -0.98 20 -2 20 C-2 19.34 -2 18.68 -2 18 C-2.66 18 -3.32 18 -4 18 C-4 17.34 -4 16.68 -4 16 C-4.66 16 -5.32 16 -6 16 C-7.125 10.25 -7.125 10.25 -6 8 C-4.68 8 -3.36 8 -2 8 C-2 7.01 -2 6.02 -2 5 C-1.34 5 -0.68 5 0 5 C0 3.35 0 1.7 0 0 Z " fill="#51ACCA" transform="translate(434,566)"/>
<path d="M0 0 C4.29 0 8.58 0 13 0 C12.67 1.32 12.34 2.64 12 4 C13.32 4 14.64 4 16 4 C16 4.99 16 5.98 16 7 C15.030625 6.690625 14.06125 6.38125 13.0625 6.0625 C8.76335509 4.82032903 4.44657366 4.38315147 0 4 C0 2.68 0 1.36 0 0 Z " fill="#94A0AA" transform="translate(185,555)"/>
<path d="M0 0 C3.3 0 6.6 0 10 0 C10.33 5.94 10.66 11.88 11 18 C11.66 18.33 12.32 18.66 13 19 C12.34 19.66 11.68 20.32 11 21 C10.01 21 9.02 21 8 21 C7.67 14.73 7.34 8.46 7 2 C4.69 2 2.38 2 0 2 C0 1.34 0 0.68 0 0 Z " fill="#58B5D5" transform="translate(313,543)"/>
<path d="M0 0 C5.37410213 1.67767854 7.1797766 4.60041192 10.25390625 9.1015625 C10.83011719 9.72804688 11.40632813 10.35453125 12 11 C13.32 11 14.64 11 16 11 C16 11.66 16 12.32 16 13 C18.97 13.495 18.97 13.495 22 14 C21.67 14.66 21.34 15.32 21 16 C19.41375765 15.57316761 17.8310902 15.13303842 16.25 14.6875 C15.36828125 14.44386719 14.4865625 14.20023438 13.578125 13.94921875 C8.05022312 11.91394579 3.17437176 7.51651091 0.6875 2.1875 C0.460625 1.465625 0.23375 0.74375 0 0 Z " fill="#608DA2" transform="translate(98,649)"/>
<path d="M0 0 C3.67347232 0.93972548 5.60917439 1.52627198 8.0625 4.5 C12.68202309 8.43150901 18.10297737 8.42152194 24 9 C24 9.33 24 9.66 24 10 C16.6132445 11.4183694 11.75366837 11.09815622 5.09375 7.51953125 C2.84559847 5.88794366 1.46921531 4.34980269 0 2 C0 1.34 0 0.68 0 0 Z " fill="#529CB7" transform="translate(361,589)"/>
<path d="M0 0 C0.33 0 0.66 0 1 0 C1.44935518 6.40331132 0.85562461 9.78969647 -3 15 C-7.09507748 17.6162995 -11.28826902 17.3739469 -16 17 C-18.5 15.5 -18.5 15.5 -20 14 C-19.67 13.34 -19.34 12.68 -19 12 C-17.515 12.99 -17.515 12.99 -16 14 C-11.74155328 14.34342312 -9.06500379 14.43989287 -5.125 12.8125 C-2.59360511 10.65336906 -1.83932192 9.20468371 -1 6 C-0.96213099 4.33376361 -0.95372155 2.66602403 -1 1 C-0.67 0.67 -0.34 0.34 0 0 Z " fill="#A3ADB6" transform="translate(468,637)"/>
<path d="M0 0 C0.78310547 0.30744141 0.78310547 0.30744141 1.58203125 0.62109375 C7.70748632 2.86316049 13.50382011 3.64787062 20 4 C19.67 4.66 19.34 5.32 19 6 C13.77781751 7.7407275 9.57813304 7.51733996 4.625 5.1875 C1.54740897 3.6368219 1.14428317 3.43284952 0 0 Z " fill="#5691A8" transform="translate(323,594)"/>
<path d="M0 0 C2.625 2.0625 2.625 2.0625 4 4 C3.01 4.495 3.01 4.495 2 5 C1.67 4.34 1.34 3.68 1 3 C-1.57951874 2.30906104 -1.57951874 2.30906104 -4.5625 1.875 C-5.57441406 1.70742188 -6.58632813 1.53984375 -7.62890625 1.3671875 C-8.41136719 1.24601563 -9.19382812 1.12484375 -10 1 C-10 1.66 -10 2.32 -10 3 C-12.64 3.66 -15.28 4.32 -18 5 C-18 5.66 -18 6.32 -18 7 C-18.66 7 -19.32 7 -20 7 C-20 5.35 -20 3.7 -20 2 C-18.68 2 -17.36 2 -16 2 C-15.13375 1.484375 -14.2675 0.96875 -13.375 0.4375 C-8.72844935 -1.54158639 -4.85413009 -1.26340372 0 0 Z " fill="#8B949E" transform="translate(295,557)"/>
<path d="M0 0 C0.99 0.33 1.98 0.66 3 1 C4.16512384 4.49537151 5 7.3040893 5 11 C2.625 10.75 2.625 10.75 0 10 C-1.91226831 7.56620398 -2.04579982 6.39387843 -1.6875 3.3125 C-1 1 -1 1 0 0 Z " fill="#5AC9F4" transform="translate(105,645)"/>
<path d="M0 0 C2.29141286 -0.05384521 4.58318188 -0.09272087 6.875 -0.125 C8.78925781 -0.15980469 8.78925781 -0.15980469 10.7421875 -0.1953125 C14 0 14 0 16 2 C14.06388819 3.93611181 10.65525409 3.70714792 8.0625 4.0625 C6.79535156 4.23910156 5.52820313 4.41570313 4.22265625 4.59765625 C1 5 1 5 -1 5 C-0.67 3.35 -0.34 1.7 0 0 Z " fill="#B3BDC6" transform="translate(212,556)"/>
<path d="M0 0 C4.95 0 9.9 0 15 0 C15.33 1.32 15.66 2.64 16 4 C15.34 4 14.68 4 14 4 C13.67 3.34 13.34 2.68 13 2 C10.64400765 1.53248212 10.64400765 1.53248212 7.9375 1.375 C5.4934375 1.189375 5.4934375 1.189375 3 1 C4.32 4.96 5.64 8.92 7 13 C6.01 13.495 6.01 13.495 5 14 C4.15675328 12.421924 3.32576082 10.8372958 2.5 9.25 C2.0359375 8.36828125 1.571875 7.4865625 1.09375 6.578125 C0 4 0 4 0 0 Z " fill="#AAB2BB" transform="translate(347,617)"/>
<path d="M0 0 C0.73412109 -0.01998047 1.46824219 -0.03996094 2.22460938 -0.06054688 C7.80809354 -0.05559259 11.05234173 1.34535347 15.6875 4.4375 C14.125 5.125 14.125 5.125 11.6875 5.4375 C10.06189645 4.6744616 8.43647892 3.9110213 6.8125 3.14453125 C0.88366156 1.17188464 -6.31496269 2.14073518 -12.3125 3.4375 C-8.66789033 -0.1878769 -4.85598064 -0.04616749 0 0 Z " fill="#909BA5" transform="translate(456.3125,616.5625)"/>
<path d="M0 0 C0.33 0.99 0.66 1.98 1 3 C2.49985609 4.66710346 2.49985609 4.66710346 4 6 C3.34 6.66 2.68 7.32 2 8 C2 7.34 2 6.68 2 6 C1.34 6 0.68 6 0 6 C0 14.58 0 23.16 0 32 C-0.66 31.67 -1.32 31.34 -2 31 C-2.05804281 26.58338849 -2.09361104 22.16687504 -2.125 17.75 C-2.14175781 16.49574219 -2.15851563 15.24148438 -2.17578125 13.94921875 C-2.18222656 12.74394531 -2.18867187 11.53867187 -2.1953125 10.296875 C-2.20578613 9.18666992 -2.21625977 8.07646484 -2.22705078 6.93261719 C-2.00468334 4.06049058 -1.49281575 2.42776265 0 0 Z " fill="#AAB6C2" transform="translate(114,572)"/>
<path d="M0 0 C0.99 0.33 1.98 0.66 3 1 C2.9375 3.3125 2.9375 3.3125 2 6 C-2.78802397 8.7770539 -6.40788256 9.43016288 -12 9 C-12.99 8.67 -13.98 8.34 -15 8 C-15 7.34 -15 6.68 -15 6 C-13.87851562 6.01740234 -13.87851562 6.01740234 -12.734375 6.03515625 C-11.74953125 6.04417969 -10.7646875 6.05320312 -9.75 6.0625 C-8.77546875 6.07410156 -7.8009375 6.08570313 -6.796875 6.09765625 C-4.34241322 6.01195577 -2.33831086 5.70706066 0 5 C0 3.35 0 1.7 0 0 Z " fill="#A9B0B8" transform="translate(276,645)"/>
<path d="M0 0 C0.33 0.66 0.66 1.32 1 2 C-0.6396875 1.9071875 -0.6396875 1.9071875 -2.3125 1.8125 C-5.8580271 1.70551225 -5.8580271 1.70551225 -8 3.1875 C-9.23646577 5.03990766 -9.23646577 5.03990766 -8.8125 7.625 C-8.25355766 10.16552003 -8.25355766 10.16552003 -6 11 C-6 11.66 -6 12.32 -6 13 C-8.475 12.01 -8.475 12.01 -11 11 C-11.75 7.75 -11.75 7.75 -12 4 C-8.32768066 -0.81200465 -5.76773156 -1.34989462 0 0 Z " fill="#929AA3" transform="translate(423,603)"/>
<path d="M0 0 C-7.4322137 4.47469197 -13.56882875 4.19886825 -22 3 C-19.15801616 0.15801616 -16.95946334 0.62817088 -13 0.4375 C-0.61439438 -0.18431831 -0.61439438 -0.18431831 0 0 Z " fill="#9CA5AE" transform="translate(471,661)"/>
<path d="M0 0 C0.66 0.33 1.32 0.66 2 1 C2 1.66 2 2.32 2 3 C2.66 3 3.32 3 4 3 C3.67 4.65 3.34 6.3 3 8 C-1.29 8 -5.58 8 -10 8 C-10 7.01 -10 6.02 -10 5 C-6.37 5.33 -2.74 5.66 1 6 C0.67 4.02 0.34 2.04 0 0 Z " fill="#548599" transform="translate(440,592)"/>
<path d="M0 0 C0.33 0 0.66 0 1 0 C1 2.31 1 4.62 1 7 C1.66 7 2.32 7 3 7 C3.33 8.32 3.66 9.64 4 11 C5.41543415 11.19658808 6.83244031 11.38187546 8.25 11.5625 C9.03890625 11.66691406 9.8278125 11.77132812 10.640625 11.87890625 C13.00532874 12.00027349 14.7511037 11.69633257 17 11 C16.67 11.99 16.34 12.98 16 14 C14.41705218 14.05437607 12.83355744 14.09296271 11.25 14.125 C10.36828125 14.14820313 9.4865625 14.17140625 8.578125 14.1953125 C5.82009905 13.98637114 4.30096477 13.51063339 2 12 C-0.13586678 8.79619983 -0.23132175 7.98060033 -0.125 4.3125 C-0.10695313 3.50425781 -0.08890625 2.69601562 -0.0703125 1.86328125 C-0.04710937 1.24839844 -0.02390625 0.63351562 0 0 Z " fill="#4F8398" transform="translate(369,575)"/>
<path d="M0 0 C0.33 0.66 0.66 1.32 1 2 C2.0828125 2.3403125 2.0828125 2.3403125 3.1875 2.6875 C7.21297638 4.56605564 9.6997237 7.2126024 12 11 C12.74527667 13.77300996 12.89832421 16.10224002 13 19 C11 16 11 16 11 13 C10.34 13 9.68 13 9 13 C7.67016515 11.01429422 6.56021541 8.9440069 5.4140625 6.84765625 C3.72859776 4.64537774 2.69645014 4.36143906 0 4 C0 2.68 0 1.36 0 0 Z " fill="#54869C" transform="translate(390,558)"/>
<path d="M0 0 C7.41017023 -0.11459026 14.64206267 0.08839714 22 1 C21.69381595 4.67420866 21.24228216 5.78135513 18.4375 8.3125 C17.633125 8.869375 16.82875 9.42625 16 10 C15.67 9.34 15.34 8.68 15 8 C15.639375 7.38125 16.27875 6.7625 16.9375 6.125 C19.03883584 4.17402388 19.03883584 4.17402388 20 2 C19.39414063 2.01160156 18.78828125 2.02320313 18.1640625 2.03515625 C12.04075052 2.10109961 6.07906669 1.72431433 0 1 C0 0.67 0 0.34 0 0 Z " fill="#415867" transform="translate(120,652)"/>
<path d="M0 0 C1.18613892 0.00785522 1.18613892 0.00785522 2.39624023 0.01586914 C3.67724609 0.02070312 3.67724609 0.02070312 4.98413086 0.02563477 C5.88196289 0.03401367 6.77979492 0.04239258 7.70483398 0.05102539 C8.6065332 0.05553711 9.50823242 0.06004883 10.43725586 0.06469727 C12.67234712 0.07652315 14.90730835 0.09300319 17.14233398 0.11352539 C16.81233398 0.77352539 16.48233398 1.43352539 16.14233398 2.11352539 C10.68705781 3.37886297 4.70929204 3.40652318 -0.85766602 3.11352539 C-1.51766602 2.45352539 -2.17766602 1.79352539 -2.85766602 1.11352539 C-1.85766602 0.11352539 -1.85766602 0.11352539 0 0 Z " fill="#6F8191" transform="translate(186.857666015625,646.886474609375)"/>
<path d="M0 0 C2.94982021 1.14186589 4.88437775 2.67281553 7 5 C6.01 5.495 6.01 5.495 5 6 C4.01 7.485 4.01 7.485 3 9 C0.5 6.6875 0.5 6.6875 -2 4 C-2 3.01 -2 2.02 -2 1 C-1.34 0.67 -0.68 0.34 0 0 Z " fill="#5F8CA1" transform="translate(217,612)"/>
<path d="M0 0 C0.33 0 0.66 0 1 0 C0.67 2.64 0.34 5.28 0 8 C-0.66 8 -1.32 8 -2 8 C-2.433125 9.1446875 -2.433125 9.1446875 -2.875 10.3125 C-4 13 -4 13 -6 16 C-6.66 16 -7.32 16 -8 16 C-8.3125 13.8125 -8.3125 13.8125 -8 11 C-5.625 8.1875 -5.625 8.1875 -3 6 C-2.34 6 -1.68 6 -1 6 C-0.67 4.02 -0.34 2.04 0 0 Z " fill="#5A97AE" transform="translate(402,579)"/>
<path d="M0 0 C0.66 0 1.32 0 2 0 C2.33 1.65 2.66 3.3 3 5 C2.01 5.33 1.02 5.66 0 6 C0 9.96 0 13.92 0 18 C-2 16 -2 16 -2.0625 12.8125 C-2.041875 11.554375 -2.02125 10.29625 -2 9 C-2.29692012 6.66175408 -2.62020847 4.32622311 -3 2 C-2.01 2 -1.02 2 0 2 C0 1.34 0 0.68 0 0 Z " fill="#719AAC" transform="translate(228,625)"/>
<path d="M0 0 C0.66 0 1.32 0 2 0 C2.55353075 12.66970387 2.55353075 12.66970387 -1 18 C-2.32 17.67 -3.64 17.34 -5 17 C-4.35546875 16.47921875 -3.7109375 15.9584375 -3.046875 15.421875 C-0.40014324 12.29024582 -0.41209076 10.30226904 -0.25 6.25 C-0.19328125 5.07953125 -0.1365625 3.9090625 -0.078125 2.703125 C-0.05234375 1.81109375 -0.0265625 0.9190625 0 0 Z " fill="#6C808D" transform="translate(203,537)"/>
<path d="M0 0 C0.66 0 1.32 0 2 0 C2.268125 0.928125 2.53625 1.85625 2.8125 2.8125 C3.93395985 5.82273432 4.60946844 7.00789036 7 9 C7.66 9.66 8.32 10.32 9 11 C5.48096286 11.31991247 3.57984832 11.37169764 0.5625 9.4375 C-1 7 -1 7 -0.75 3.25 C-0.5025 2.1775 -0.255 1.105 0 0 Z " fill="#5C9AB4" transform="translate(108,641)"/>
<path d="M0 0 C1.125 3.75 1.125 3.75 0 6 C-1.98 6 -3.96 6 -6 6 C-6.33 4.35 -6.66 2.7 -7 1 C-4 0 -4 0 0 0 Z " fill="#99A6B1" transform="translate(112,524)"/>
<path d="M0 0 C1.93166016 0.01740234 1.93166016 0.01740234 3.90234375 0.03515625 C5.19269531 0.04417969 6.48304688 0.05320312 7.8125 0.0625 C8.81152344 0.07410156 9.81054688 0.08570313 10.83984375 0.09765625 C10.83984375 0.75765625 10.83984375 1.41765625 10.83984375 2.09765625 C10.05738281 2.14664063 9.27492188 2.195625 8.46875 2.24609375 C7.45683594 2.32085938 6.44492187 2.395625 5.40234375 2.47265625 C4.39300781 2.54226563 3.38367188 2.611875 2.34375 2.68359375 C1.10431641 2.88855469 1.10431641 2.88855469 -0.16015625 3.09765625 C-0.49015625 3.75765625 -0.82015625 4.41765625 -1.16015625 5.09765625 C-1.82015625 5.09765625 -2.48015625 5.09765625 -3.16015625 5.09765625 C-3.72265625 3.16015625 -3.72265625 3.16015625 -4.16015625 1.09765625 C-3.16015625 0.09765625 -3.16015625 0.09765625 0 0 Z " fill="#4E778C" transform="translate(404.16015625,556.90234375)"/>
<path d="M0 0 C1.75 1 1.75 1 3.75 4 C2.8425 3.7525 1.935 3.505 1 3.25 C-2.27984454 2.65644081 -2.27984454 2.65644081 -4.625 4.625 C-6.49958242 7.3647743 -6.61101683 8.75084855 -6.25 12 C-7.24 11.67 -8.23 11.34 -9.25 11 C-9.11263203 8.04658865 -8.89832501 5.79485048 -6.98828125 3.453125 C-4.73790686 1.43515703 -3.09902486 0 0 0 Z " fill="#848F99" transform="translate(252.25,645)"/>
<path d="M0 0 C0.99 0.495 0.99 0.495 2 1 C2 5.62 2 10.24 2 15 C2.66 15.33 3.32 15.66 4 16 C2.68 16 1.36 16 0 16 C0 10.72 0 5.44 0 0 Z " fill="#6A8393" transform="translate(107,583)"/>
<path d="M0 0 C4.62 0 9.24 0 14 0 C13 6 13 6 11 9 C10 8 10 8 9.9375 5.4375 C9.958125 4.633125 9.97875 3.82875 10 3 C10.66 3 11.32 3 12 3 C12 2.34 12 1.68 12 1 C6.06 1.495 6.06 1.495 0 2 C0 1.34 0 0.68 0 0 Z " fill="#BBC1C9" transform="translate(386,617)"/>
<path d="M0 0 C-0.47205119 4.24846075 -2.88877522 6.26819288 -6 9 C-6.66 9 -7.32 9 -8 9 C-8.6875 7.1875 -8.6875 7.1875 -9 5 C-6.83400098 2.03600133 -3.71834478 0 0 0 Z " fill="#50C0E2" transform="translate(423,586)"/>
<path d="M0 0 C2.125 0.9375 2.125 0.9375 4 2 C3.67 3.65 3.34 5.3 3 7 C1.35 7 -0.3 7 -2 7 C-2 5.02 -2 3.04 -2 1 C-1.34 0.67 -0.68 0.34 0 0 Z " fill="#9AA1A9" transform="translate(72,560)"/>
<path d="M0 0 C0 3 0 3 -1.6796875 4.9375 C-2.40414062 5.618125 -3.12859375 6.29875 -3.875 7 C-6.30084581 9.295424 -8.13500096 11.20250144 -10 14 C-10.66 14 -11.32 14 -12 14 C-12 13.34 -12 12.68 -12 12 C-11.34 12 -10.68 12 -10 12 C-10 11.01 -10 10.02 -10 9 C-9.34 9 -8.68 9 -8 9 C-8 8.34 -8 7.68 -8 7 C-7.34 7 -6.68 7 -6 7 C-6 6.01 -6 5.02 -6 4 C-5.01 4 -4.02 4 -3 4 C-3 3.34 -3 2.68 -3 2 C-2.01 1.34 -1.02 0.68 0 0 Z " fill="#99A2AD" transform="translate(178,599)"/>
<path d="M0 0 C-1.65 0.33 -3.3 0.66 -5 1 C-5 1.66 -5 2.32 -5 3 C-5.66 3 -6.32 3 -7 3 C-7.33 3.99 -7.66 4.98 -8 6 C-9.32 5.67 -10.64 5.34 -12 5 C-12 5.66 -12 6.32 -12 7 C-12.66 6.67 -13.32 6.34 -14 6 C-10.55486735 2.03287756 -5.52790265 -2.76395133 0 0 Z " fill="#55AECB" transform="translate(376,559)"/>
<path d="M0 0 C2.13586678 3.20380017 2.23132175 4.01939967 2.125 7.6875 C2.10695313 8.49574219 2.08890625 9.30398438 2.0703125 10.13671875 C2.03550781 11.05904297 2.03550781 11.05904297 2 12 C0.35 12.33 -1.3 12.66 -3 13 C-2.690625 11.96875 -2.38125 10.9375 -2.0625 9.875 C-1.12497188 6.61027443 -0.49227298 3.36386538 0 0 Z " fill="#5899B2" transform="translate(390,572)"/>
<path d="M0 0 C0.99 0 1.98 0 3 0 C3 0.66 3 1.32 3 2 C3.66 2 4.32 2 5 2 C5 2.66 5 3.32 5 4 C5.66 4 6.32 4 7 4 C8.625 5.375 8.625 5.375 10 7 C10 7.66 10 8.32 10 9 C10.66 9 11.32 9 12 9 C12.33 9.99 12.66 10.98 13 12 C9.16444775 10.4373676 6.86390275 7.93550032 4 5 C3.236875 4.443125 2.47375 3.88625 1.6875 3.3125 C1.130625 2.879375 0.57375 2.44625 0 2 C0 1.34 0 0.68 0 0 Z " fill="#868F98" transform="translate(126,580)"/>
<path d="M0 0 C4.62 0 9.24 0 14 0 C14 1.32 14 2.64 14 4 C13.67 3.34 13.34 2.68 13 2 C8.71 2 4.42 2 0 2 C0 1.34 0 0.68 0 0 Z " fill="#4E7286" transform="translate(429,557)"/>
<path d="M0 0 C2.625 0.9375 2.625 0.9375 5 2 C5 2.99 5 3.98 5 5 C4.01 5 3.02 5 2 5 C2.33 5.99 2.66 6.98 3 8 C2.34 8 1.68 8 1 8 C1 7.34 1 6.68 1 6 C0.01 5.67 -0.98 5.34 -2 5 C-2 3.68 -2 2.36 -2 1 C-1.34 0.67 -0.68 0.34 0 0 Z " fill="#487A90" transform="translate(177,655)"/>
<path d="M0 0 C0.66 0 1.32 0 2 0 C2.33 0.99 2.66 1.98 3 3 C1.78515625 4.9375 1.78515625 4.9375 0.0625 7 C-2.59953768 10.04655909 -2.59953768 10.04655909 -3 14 C-3.99 13.67 -4.98 13.34 -6 13 C-5.67 11.35 -5.34 9.7 -5 8 C-4.01 8 -3.02 8 -2 8 C-2 7.01 -2 6.02 -2 5 C-1.34 5 -0.68 5 0 5 C0 3.35 0 1.7 0 0 Z " fill="#5996AE" transform="translate(434,566)"/>
<path d="M0 0 C1.32 0.66 2.64 1.32 4 2 C3.67 2.99 3.34 3.98 3 5 C2.01 5 1.02 5 0 5 C-0.33 6.32 -0.66 7.64 -1 9 C-2.32 9.33 -3.64 9.66 -5 10 C-4.67 9.01 -4.34 8.02 -4 7 C-3.34 7 -2.68 7 -2 7 C-1.34 4.69 -0.68 2.38 0 0 Z " fill="#7B93A1" transform="translate(106,616)"/>
<path d="M0 0 C0 2.31 0 4.62 0 7 C-0.66 7 -1.32 7 -2 7 C-2 5.35 -2 3.7 -2 2 C-5.3 2.33 -8.6 2.66 -12 3 C-11.67 2.34 -11.34 1.68 -11 1 C-7.318488 -0.05186057 -3.80944893 -0.08859184 0 0 Z " fill="#B1BAC4" transform="translate(514,616)"/>
<path d="M0 0 C3.96 0 7.92 0 12 0 C12.33 0.99 12.66 1.98 13 3 C13.66 2.67 14.32 2.34 15 2 C14.1875 3.9375 14.1875 3.9375 13 6 C12.01 6.33 11.02 6.66 10 7 C10 5.02 10 3.04 10 1 C6.7 1 3.4 1 0 1 C0 0.67 0 0.34 0 0 Z " fill="#BCC3CB" transform="translate(487,617)"/>
<path d="M0 0 C2 1 4 2 6 3 C6 2.01 6 1.02 6 0 C6.66 0 7.32 0 8 0 C8 2.31 8 4.62 8 7 C5.36 5.68 2.72 4.36 0 3 C0 2.01 0 1.02 0 0 Z " fill="#868E97" transform="translate(322,617)"/>
<path d="M0 0 C0 0.33 0 0.66 0 1 C-3.3 1 -6.6 1 -10 1 C-10 1.66 -10 2.32 -10 3 C-12.31 3.33 -14.62 3.66 -17 4 C-14.64851436 1.08415781 -13.32157965 0.07741732 -9.625 -0.8125 C-6.19847653 -0.98973397 -3.34020692 -0.73321615 0 0 Z " fill="#8F9BA5" transform="translate(320,617)"/>
<path d="M0 0 C0.99 0.33 1.98 0.66 3 1 C2.67 1.99 2.34 2.98 2 4 C3.20107655 6.12817523 3.20107655 6.12817523 4.9375 8.1875 C5.78634766 9.26064453 5.78634766 9.26064453 6.65234375 10.35546875 C7.09707031 10.89816406 7.54179688 11.44085937 8 12 C5.525 11.01 5.525 11.01 3 10 C3 9.34 3 8.68 3 8 C2.34 8 1.68 8 1 8 C-0.625 5.5 -0.625 5.5 -2 3 C-1.34 3 -0.68 3 0 3 C0 2.01 0 1.02 0 0 Z " fill="#5E717E" transform="translate(118,568)"/>
<path d="M0 0 C5.94 0 11.88 0 18 0 C18 0.66 18 1.32 18 2 C11.57541517 3.55747511 6.17841869 3.41109022 0 1 C0 0.67 0 0.34 0 0 Z " fill="#4F7486" transform="translate(190,668)"/>
<path d="M0 0 C4.62 0 9.24 0 14 0 C13.67 1.32 13.34 2.64 13 4 C11.58194169 3.71517632 10.16559621 3.42181856 8.75 3.125 C7.96109375 2.96257813 7.1721875 2.80015625 6.359375 2.6328125 C4 2 4 2 0 0 Z " fill="#56C3E6" transform="translate(376,558)"/>
<path d="M0 0 C0.8125 1.6875 0.8125 1.6875 1 4 C-1.3125 6.75 -1.3125 6.75 -4 9 C-4.66 9 -5.32 9 -6 9 C-5.69381595 5.32579134 -5.24228216 4.21864487 -2.4375 1.6875 C-1.633125 1.130625 -0.82875 0.57375 0 0 Z " fill="#82919E" transform="translate(211,640)"/>
<path d="M0 0 C0 1.65 0 3.3 0 5 C0.66 5 1.32 5 2 5 C2 6.32 2 7.64 2 9 C1.34 9 0.68 9 0 9 C-4 3.58823529 -4 3.58823529 -4 1 C-2 0 -2 0 0 0 Z " fill="#4689A2" transform="translate(427,587)"/>
<path d="M0 0 C1.485 0.99 1.485 0.99 3 2 C3 2.66 3 3.32 3 4 C4.32 4.33 5.64 4.66 7 5 C7 6.32 7 7.64 7 9 C5.68 9 4.36 9 3 9 C2.01 6.03 1.02 3.06 0 0 Z " fill="#599FB9" transform="translate(417,562)"/>
<path d="M0 0 C0.99 0.33 1.98 0.66 3 1 C3 1.99 3 2.98 3 4 C4.32 3.67 5.64 3.34 7 3 C6.67 4.32 6.34 5.64 6 7 C5.67 6.67 5.34 6.34 5 6 C4.67 6.99 4.34 7.98 4 9 C3.01 8.67 2.02 8.34 1 8 C0.67 5.36 0.34 2.72 0 0 Z " fill="#8F9EAA" transform="translate(201,562)"/>
<path d="M0 0 C0.66 0.165 1.32 0.33 2 0.5 C5.73099794 1.12183299 9.21873378 1.06408926 13 1 C12.67 1.99 12.34 2.98 12 4 C10.37399059 3.9129995 8.74910322 3.8048219 7.125 3.6875 C6.22007813 3.62949219 5.31515625 3.57148437 4.3828125 3.51171875 C2 3 2 3 0 0 Z " fill="#708291" transform="translate(115,646)"/>
<path d="M0 0 C0.66 0 1.32 0 2 0 C1.88648483 1.81325551 1.75887039 3.62563357 1.625 5.4375 C1.55539062 6.44683594 1.48578125 7.45617187 1.4140625 8.49609375 C1.27742188 9.32238281 1.14078125 10.14867187 1 11 C0.01 11.495 0.01 11.495 -1 12 C-1.02698189 10.37509046 -1.04638757 8.75005367 -1.0625 7.125 C-1.07410156 6.22007812 -1.08570313 5.31515625 -1.09765625 4.3828125 C-1 2 -1 2 0 0 Z " fill="#919AA3" transform="translate(480,638)"/>
<path d="M0 0 C1.32 0 2.64 0 4 0 C4 0.99 4 1.98 4 3 C4.66 3 5.32 3 6 3 C6 3.66 6 4.32 6 5 C7.32 5.33 8.64 5.66 10 6 C8.02 6.99 8.02 6.99 6 8 C6 7.34 6 6.68 6 6 C5.34 6 4.68 6 4 6 C2.61061923 4.03852126 1.2739589 2.03833424 0 0 Z " fill="#83909B" transform="translate(155,608)"/>
<path d="M0 0 C0.33 0.66 0.66 1.32 1 2 C1.66 2 2.32 2 3 2 C2 5 2 5 -1 7 C-1.99 7 -2.98 7 -4 7 C-2.92598892 4.08482708 -2.22189824 2.22189824 0 0 Z " fill="#4995B0" transform="translate(347,591)"/>
<path d="M0 0 C3.3 0 6.6 0 10 0 C10 0.33 10 0.66 10 1 C8.741875 1.2475 7.48375 1.495 6.1875 1.75 C3.16442273 2.48837994 2.1940517 2.79382006 0 5.125 C-0.33 5.74375 -0.66 6.3625 -1 7 C-1.66 6.67 -2.32 6.34 -3 6 C-2.01 4.02 -1.02 2.04 0 0 Z " fill="#4B8096" transform="translate(373,567)"/>
<path d="M0 0 C3.03852705 1.40976705 5.5939595 3.08870228 8.25 5.125 C8.95640625 5.66382813 9.6628125 6.20265625 10.390625 6.7578125 C10.92171875 7.16773438 11.4528125 7.57765625 12 8 C11.01 8.495 11.01 8.495 10 9 C9.34 8.67 8.68 8.34 8 8 C8 7.34 8 6.68 8 6 C7.236875 5.71125 6.47375 5.4225 5.6875 5.125 C3 4 3 4 0 2 C0 1.34 0 0.68 0 0 Z " fill="#B9C3D4" transform="translate(188,630)"/>
<path d="M0 0 C0.33 0.99 0.66 1.98 1 3 C0.21625 3.4125 -0.5675 3.825 -1.375 4.25 C-4.05891656 6.0392777 -4.88098949 7.04988139 -6 10 C-6.66 10 -7.32 10 -8 10 C-6.68745073 6.0623522 -5.1247232 3.7341328 -2 1 C-1.34 0.67 -0.68 0.34 0 0 Z " fill="#8F9AA5" transform="translate(443,620)"/>
<path d="M0 0 C0.66 0.33 1.32 0.66 2 1 C0.90344712 2.31886772 -0.20253423 3.62990057 -1.3125 4.9375 C-1.92738281 5.66839844 -2.54226562 6.39929688 -3.17578125 7.15234375 C-5 9 -5 9 -8 10 C-6.44303593 6.17836093 -3.96591316 3.81381505 -1 1 C-0.67 0.67 -0.34 0.34 0 0 Z " fill="#78818B" transform="translate(209,574)"/>
<path d="M0 0 C1.22589844 0.15275391 1.22589844 0.15275391 2.4765625 0.30859375 C3.41628906 0.43427734 3.41628906 0.43427734 4.375 0.5625 C4.375 1.2225 4.375 1.8825 4.375 2.5625 C0.745 2.5625 -2.885 2.5625 -6.625 2.5625 C-6.625 1.9025 -6.625 1.2425 -6.625 0.5625 C-4.10446405 -0.69776798 -2.7707902 -0.35624445 0 0 Z " fill="#50C6EA" transform="translate(380.625,564.4375)"/>
<path d="M0 0 C0.66 0.33 1.32 0.66 2 1 C2 2.65 2 4.3 2 6 C0.02 6.99 0.02 6.99 -2 8 C-1.125 1.125 -1.125 1.125 0 0 Z " fill="#84CEEA" transform="translate(229,641)"/>
<path d="M0 0 C0.66 0.66 1.32 1.32 2 2 C1.75 5.0625 1.75 5.0625 1 8 C0.01 8.495 0.01 8.495 -1 9 C-1.625 5.625 -1.625 5.625 -2 2 C-1.34 1.34 -0.68 0.68 0 0 Z " fill="#4FA5C2" transform="translate(361,566)"/>
<path d="M0 0 C-1.28716647 1.00578589 -2.57988658 2.00446798 -3.875 3 C-4.95394531 3.8353125 -4.95394531 3.8353125 -6.0546875 4.6875 C-8 6 -8 6 -10 6 C-10 5.34 -10 4.68 -10 4 C-8.68 3.67 -7.36 3.34 -6 3 C-6 2.01 -6 1.02 -6 0 C-3.50907189 -1.24546405 -2.58919267 -0.7767578 0 0 Z " fill="#4A798D" transform="translate(223,662)"/>
<path d="M0 0 C0.99 0.33 1.98 0.66 3 1 C4.1875 3.5625 4.1875 3.5625 5 6 C3.35 6 1.7 6 0 6 C0 4.02 0 2.04 0 0 Z " fill="#4F99B3" transform="translate(435,586)"/>
<path d="M0 0 C0.66 0 1.32 0 2 0 C3.28317892 3.84953676 3.06643637 6.94738135 3 11 C2.01 11 1.02 11 0 11 C0.185625 10.484375 0.37125 9.96875 0.5625 9.4375 C1.15419517 6.14091261 0.567267 3.27754265 0 0 Z " fill="#57879C" transform="translate(341,574)"/>
<path d="M0 0 C-1.40424009 2.80848017 -3.10864198 2.92414585 -6 4 C-7.34050052 4.65213539 -8.67661368 5.31379969 -10 6 C-10 5.34 -10 4.68 -10 4 C-9.34 4 -8.68 4 -8 4 C-8 3.34 -8 2.68 -8 2 C-3.61016949 -1.20338983 -3.61016949 -1.20338983 0 0 Z " fill="#8B969F" transform="translate(207,575)"/>
<path d="M0 0 C0.99 0.33 1.98 0.66 3 1 C3 2.65 3 4.3 3 6 C1.02 6.99 -0.96 7.98 -3 9 C-1.92598892 6.08482708 -1.22189824 4.22189824 1 2 C0.67 1.34 0.34 0.68 0 0 Z " fill="#569FB9" transform="translate(414,575)"/>
<path d="M0 0 C0 0.66 0 1.32 0 2 C0.66 2.66 1.32 3.32 2 4 C-0.64 4 -3.28 4 -6 4 C-6 3.34 -6 2.68 -6 2 C-3 0 -3 0 0 0 Z " fill="#73BDD7" transform="translate(194,664)"/>
<path d="M0 0 C4.29 0.33 8.58 0.66 13 1 C13 1.33 13 1.66 13 2 C11.20909747 2.19466332 9.41723495 2.38051213 7.625 2.5625 C6.12839844 2.71912109 6.12839844 2.71912109 4.6015625 2.87890625 C2 3 2 3 0 2 C0 1.34 0 0.68 0 0 Z " fill="#62B4D0" transform="translate(372,597)"/>
<path d="M0 0 C-1.14018002 3.42054006 -1.92458518 4.2426201 -5 6 C-7.25 5.6875 -7.25 5.6875 -9 5 C-2.40909091 0 -2.40909091 0 0 0 Z " fill="#8B98A3" transform="translate(103,556)"/>
<path d="M0 0 C2.4375 0.625 2.4375 0.625 5 2 C5.8125 5.125 5.8125 5.125 6 8 C1.125 3.375 1.125 3.375 0 0 Z " fill="#62899C" transform="translate(98,649)"/>
<path d="M0 0 C0.66 0.33 1.32 0.66 2 1 C0.68 3.64 -0.64 6.28 -2 9 C-2.66 9 -3.32 9 -4 9 C-2.94124926 5.59687262 -1.99097846 2.98646769 0 0 Z " fill="#858F99" transform="translate(300,622)"/>
<path d="M0 0 C-1.37326602 4.11979807 -4.08595092 7.04297546 -8 9 C-7.53918323 4.85264908 -4.48412936 0 0 0 Z " fill="#707C88" transform="translate(187,592)"/>
<path d="M0 0 C0.66 0.33 1.32 0.66 2 1 C2 3.31 2 5.62 2 8 C0.68 8 -0.64 8 -2 8 C-1.34 5.36 -0.68 2.72 0 0 Z " fill="#D8DAE0" transform="translate(205,567)"/>
<path d="M0 0 C2.64 0 5.28 0 8 0 C7.01 1.485 7.01 1.485 6 3 C3.375 3.1875 3.375 3.1875 1 3 C0.67 2.01 0.34 1.02 0 0 Z " fill="#57B6D7" transform="translate(193,666)"/>
<path d="M0 0 C-1.625 1.125 -1.625 1.125 -4 2 C-7.25 1.125 -7.25 1.125 -10 0 C-6.22996568 -2.61002376 -4.07631429 -1.66758312 0 0 Z " fill="#64BEE4" transform="translate(124,662)"/>
<path d="M0 0 C2.66735273 2.48952921 4.55746343 4.63408134 6 8 C4.35 7.67 2.7 7.34 1 7 C0.67 4.69 0.34 2.38 0 0 Z " fill="#6BA9C2" transform="translate(103,652)"/>
<path d="M0 0 C-0.39803561 2.88575819 -0.79009069 3.82189513 -3.0625 5.75 C-3.701875 6.1625 -4.34125 6.575 -5 7 C-5.1875 4.625 -5.1875 4.625 -5 2 C-2 0 -2 0 0 0 Z " fill="#4A89A2" transform="translate(423,586)"/>
</svg>
